<svg width="800" height="600">
<polygon points="0,600 40,600 40,560 0,560" style="fill:white;stroke:black;stroke-width:1"/>
<polygon points="40,600 80,600 80,560 40,560" style="fill:white;stroke:black;stroke-width:1"/>
<polygon points="80,600 120,600 120,560 80,560" style="fill:white;stroke:black;stroke-width:1"/>
<polygon points="120,600 160,600 160,560 120,560" style="fill:white;stroke:black;stroke-width:1"/>
<polygon points="160,600 200,600 200,560 160,560" style="fill:white;stroke:black;stroke-width:1"/>
<polygon points="200,600 240,600 240,560 200,560" style="fill:white;stroke:black;stroke-width:1"/>
<polygon points="240,600 280,600 280,560 240,560" style="fill:white;stroke:black;stroke-width:1"/>
<polygon points="280,600 320,600 320,560 280,560" style="fill:white;stroke:black;stroke-width:1"/>
<polygon points="320,600 360,600 360,560 320,560" style="fill:white;stroke:black;stroke-width:1"/>
<polygon points="360,600 400,600 400,560 360,560" style="fill:white;stroke:black;stroke-width:1"/>
<polygon points="400,600 440,600 440,560 400,560" style="fill:white;stroke:black;stroke-width:1"/>
<polygon points="440,600 480,600 480,560 440,560" style="fill:white;stroke:black;stroke-width:1"/>
<polygon points="480,600 520,600 520,560 480,560" style="fill:white;stroke:black;stroke-width:1"/>
<polygon points="520,600 560,600 560,560 520,560" style="fill:white;stroke:black;stroke-width:1"/>
<polygon points="560,600 600,600 600,560 560,560" style="fill:white;stroke:black;stroke-width:1"/>
<polygon points="600,600 640,600 640,560 600,560" style="fill:white;stroke:black;stroke-width:1"/>
<polygon points="640,600 680,600 680,560 640,560" style="fill:white;stroke:black;stroke-width:1"/>
<polygon points="680,600 720,600 720,560 680,560" style="fill:white;stroke:black;stroke-width:1"/>
<polygon points="720,600 760,600 760,560 720,560" style="fill:white;stroke:black;stroke-width:1"/>
<polygon points="760,600 800,600 800,560 760,560" style="fill:white;stroke:black;stroke-width:1"/>
<polygon points="760,560 800,560 800,520 760,520" style="fill:white;stroke:black;stroke-width:1"/>
<polygon points="760,520 800,520 800,480 760,480" style="fill:white;stroke:black;stroke-width:1"/>
<polygon points="720,520 760,520 760,480 720,480" style="fill:white;stroke:black;stroke-width:1"/>
<polygon points="680,520 720,520 720,480 680,480" style="fill:white;stroke:black;stroke-width:1"/>
<polygon points="640,520 680,520 680,480 640,480" style="fill:white;stroke:black;stroke-width:1"/>
<polygon points="600,520 640,520 640,480 600,480" style="fill:white;stroke:black;stroke-width:1"/>
<polygon points="560,520 600,520 600,480 560,480" style="fill:white;stroke:black;stroke-width:1"/>
<polygon points="520,520 560,520 560,480 520,480" style="fill:white;stroke:black;stroke-width:1"/>
<polygon points="480,520 520,520 520,480 480,480" style="fill:white;stroke:black;stroke-width:1"/>
<polygon points="440,520 480,520 480,480 440,480" style="fill:white;stroke:black;stroke-width:1"/>
<polygon points="400,520 440,520 440,480 400,480" style="fill:white;stroke:black;stroke-width:1"/>
<polygon points="360,520 400,520 400,480 360,480" style="fill:white;stroke:black;stroke-width:1"/>
<polygon points="320,520 360,520 360,480 320,480" style="fill:white;stroke:black;stroke-width:1"/>
<polygon points="280,520 320,520 320,480 280,480" style="fill:white;stroke:black;stroke-width:1"/>
<polygon points="240,520 280,520 280,480 240,480" style="fill:white;stroke:black;stroke-width:1"/>
<polygon points="200,520 240,520 240,480 200,480" style="fill:white;stroke:black;stroke-width:1"/>
<polygon points="160,520 200,520 200,480 160,480" style="fill:white;stroke:black;stroke-width:1"/>
<polygon points="120,520 160,520 160,480 120,480" style="fill:white;stroke:black;stroke-width:1"/>
<polygon points="80,520 120,520 120,480 80,480" style="fill:white;stroke:black;stroke-width:1"/>
<polygon points="40,520 80,520 80,480 40,480" style="fill:white;stroke:black;stroke-width:1"/>
<polygon points="0,520 40,520 40,480 0,480" style="fill:white;stroke:black;stroke-width:1"/>
<polygon points="0,480 40,480 40,440 0,440" style="fill:white;stroke:black;stroke-width:1"/>
<polygon points="0,440 40,440 40,400 0,400" style="fill:white;stroke:black;stroke-width:1"/>
<polygon points="40,440 80,440 80,400 40,400" style="fill:white;stroke:black;stroke-width:1"/>
<polygon points="80,440 120,440 120,400 80,400" style="fill:white;stroke:black;stroke-width:1"/>
<polygon points="120,440 160,440 160,400 120,400" style="fill:white;stroke:black;stroke-width:1"/>
<polygon points="160,440 200,440 200,400 160,400" style="fill:white;stroke:black;stroke-width:1"/>
<polygon points="200,440 240,440 240,400 200,400" style="fill:white;stroke:black;stroke-width:1"/>
<polygon points="240,440 280,440 280,400 240,400" style="fill:white;stroke:black;stroke-width:1"/>
<polygon points="280,440 320,440 320,400 280,400" style="fill:white;stroke:black;stroke-width:1"/>
<polygon points="320,440 360,440 360,400 320,400" style="fill:white;stroke:black;stroke-width:1"/>
<polygon points="360,440 400,440 400,400 360,400" style="fill:white;stroke:black;stroke-width:1"/>
<polygon points="400,440 440,440 440,400 400,400" style="fill:white;stroke:black;stroke-width:1"/>
<polygon points="440,440 480,440 480,400 440,400" style="fill:white;stroke:black;stroke-width:1"/>
<polygon points="480,440 520,440 520,400 480,400" style="fill:white;stroke:black;stroke-width:1"/>
<polygon points="520,440 560,440 560,400 520,400" style="fill:white;stroke:black;stroke-width:1"/>
<polygon points="560,440 600,440 600,400 560,400" style="fill:white;stroke:black;stroke-width:1"/>
<polygon points="600,440 640,440 640,400 600,400" style="fill:white;stroke:black;stroke-width:1"/>
<polygon points="640,440 680,440 680,400 640,400" style="fill:white;stroke:black;stroke-width:1"/>
<polygon points="680,440 720,440 720,400 680,400" style="fill:white;stroke:black;stroke-width:1"/>
<polygon points="720,440 760,440 760,400 720,400" style="fill:white;stroke:black;stroke-width:1"/>
<polygon points="760,440 800,440 800,400 760,400" style="fill:white;stroke:black;stroke-width:1"/>
<polygon points="760,400 800,400 800,360 760,360" style="fill:white;stroke:black;stroke-width:1"/>
<polygon points="760,360 800,360 800,320 760,320" style="fill:white;stroke:black;stroke-width:1"/>
<polygon points="720,360 760,360 760,320 720,320" style="fill:white;stroke:black;stroke-width:1"/>
<polygon points="680,360 720,360 720,320 680,320" style="fill:white;stroke:black;stroke-width:1"/>
<polygon points="640,360 680,360 680,320 640,320" style="fill:white;stroke:black;stroke-width:1"/>
<polygon points="600,360 640,360 640,320 600,320" style="fill:white;stroke:black;stroke-width:1"/>
<polygon points="560,360 600,360 600,320 560,320" style="fill:white;stroke:black;stroke-width:1"/>
<polygon points="520,360 560,360 560,320 520,320" style="fill:white;stroke:black;stroke-width:1"/>
<polygon points="480,360 520,360 520,320 480,320" style="fill:white;stroke:black;stroke-width:1"/>
<polygon points="440,360 480,360 480,320 440,320" style="fill:white;stroke:black;stroke-width:1"/>
<polygon points="400,360 440,360 440,320 400,320" style="fill:white;stroke:black;stroke-width:1"/>
<polygon points="360,360 400,360 400,320 360,320" style="fill:white;stroke:black;stroke-width:1"/>
<polygon points="320,360 360,360 360,320 320,320" style="fill:white;stroke:black;stroke-width:1"/>
<polygon points="280,360 320,360 320,320 280,320" style="fill:white;stroke:black;stroke-width:1"/>
<polygon points="240,360 280,360 280,320 240,320" style="fill:white;stroke:black;stroke-width:1"/>
<polygon points="200,360 240,360 240,320 200,320" style="fill:white;stroke:black;stroke-width:1"/>
<polygon points="160,360 200,360 200,320 160,320" style="fill:white;stroke:black;stroke-width:1"/>
<polygon points="120,360 160,360 160,320 120,320" style="fill:white;stroke:black;stroke-width:1"/>
<polygon points="80,360 120,360 120,320 80,320" style="fill:white;stroke:black;stroke-width:1"/>
<polygon points="40,360 80,360 80,320 40,320" style="fill:white;stroke:black;stroke-width:1"/>
<polygon points="0,360 40,360 40,320 0,320" style="fill:white;stroke:black;stroke-width:1"/>
<polygon points="0,320 40,320 40,280 0,280" style="fill:white;stroke:black;stroke-width:1"/>
<polygon points="0,280 40,280 40,240 0,240" style="fill:white;stroke:black;stroke-width:1"/>
<polygon points="40,280 80,280 80,240 40,240" style="fill:white;stroke:black;stroke-width:1"/>
<polygon points="80,280 120,280 120,240 80,240" style="fill:white;stroke:black;stroke-width:1"/>
<polygon points="120,280 160,280 160,240 120,240" style="fill:white;stroke:black;stroke-width:1"/>
<polygon points="160,280 200,280 200,240 160,240" style="fill:white;stroke:black;stroke-width:1"/>
<polygon points="200,280 240,280 240,240 200,240" style="fill:white;stroke:black;stroke-width:1"/>
<polygon points="240,280 280,280 280,240 240,240" style="fill:white;stroke:black;stroke-width:1"/>
<polygon points="280,280 320,280 320,240 280,240" style="fill:white;stroke:black;stroke-width:1"/>
<polygon points="320,280 360,280 360,240 320,240" style="fill:white;stroke:black;stroke-width:1"/>
<polygon points="360,280 400,280 400,240 360,240" style="fill:white;stroke:black;stroke-width:1"/>
<polygon points="400,280 440,280 440,240 400,240" style="fill:white;stroke:black;stroke-width:1"/>
<polygon points="440,280 480,280 480,240 440,240" style="fill:white;stroke:black;stroke-width:1"/>
<polygon points="480,280 520,280 520,240 480,240" style="fill:white;stroke:black;stroke-width:1"/>
<polygon points="520,280 560,280 560,240 520,240" style="fill:white;stroke:black;stroke-width:1"/>
<polygon points="560,280 600,280 600,240 560,240" style="fill:white;stroke:black;stroke-width:1"/>
<polygon points="600,280 640,280 640,240 600,240" style="fill:white;stroke:black;stroke-width:1"/>
<polygon points="640,280 680,280 680,240 640,240" style="fill:white;stroke:black;stroke-width:1"/>
<polygon points="680,280 720,280 720,240 680,240" style="fill:white;stroke:black;stroke-width:1"/>
<polygon points="720,280 760,280 760,240 720,240" style="fill:white;stroke:black;stroke-width:1"/>
<polygon points="760,280 800,280 800,240 760,240" style="fill:white;stroke:black;stroke-width:1"/>
<polygon points="760,240 800,240 800,200 760,200" style="fill:white;stroke:black;stroke-width:1"/>
<polygon points="760,200 800,200 800,160 760,160" style="fill:white;stroke:black;stroke-width:1"/>
<polygon points="720,200 760,200 760,160 720,160" style="fill:white;stroke:black;stroke-width:1"/>
<polygon points="680,200 720,200 720,160 680,160" style="fill:white;stroke:black;stroke-width:1"/>
<polygon points="640,200 680,200 680,160 640,160" style="fill:white;stroke:black;stroke-width:1"/>
<polygon points="600,200 640,200 640,160 600,160" style="fill:white;stroke:black;stroke-width:1"/>
<polygon points="560,200 600,200 600,160 560,160" style="fill:white;stroke:black;stroke-width:1"/>
<polygon points="520,200 560,200 560,160 520,160" style="fill:white;stroke:black;stroke-width:1"/>
<polygon points="480,200 520,200 520,160 480,160" style="fill:white;stroke:black;stroke-width:1"/>
<polygon points="440,200 480,200 480,160 440,160" style="fill:white;stroke:black;stroke-width:1"/>
<polygon points="400,200 440,200 440,160 400,160" style="fill:white;stroke:black;stroke-width:1"/>
<polygon points="360,200 400,200 400,160 360,160" style="fill:white;stroke:black;stroke-width:1"/>
<polygon points="320,200 360,200 360,160 320,160" style="fill:white;stroke:black;stroke-width:1"/>
<polygon points="280,200 320,200 320,160 280,160" style="fill:white;stroke:black;stroke-width:1"/>
<polygon points="240,200 280,200 280,160 240,160" style="fill:white;stroke:black;stroke-width:1"/>
<polygon points="200,200 240,200 240,160 200,160" style="fill:white;stroke:black;stroke-width:1"/>
<polygon points="160,200 200,200 200,160 160,160" style="fill:white;stroke:black;stroke-width:1"/>
<polygon points="120,200 160,200 160,160 120,160" style="fill:white;stroke:black;stroke-width:1"/>
<polygon points="80,200 120,200 120,160 80,160" style="fill:white;stroke:black;stroke-width:1"/>
<polygon points="40,200 80,200 80,160 40,160" style="fill:white;stroke:black;stroke-width:1"/>
<polygon points="0,200 40,200 40,160 0,160" style="fill:white;stroke:black;stroke-width:1"/>
<polygon points="0,160 40,160 40,120 0,120" style="fill:white;stroke:black;stroke-width:1"/>
<polygon points="0,120 40,120 40,80 0,80" style="fill:white;stroke:black;stroke-width:1"/>
<polygon points="40,120 80,120 80,80 40,80" style="fill:white;stroke:black;stroke-width:1"/>
<polygon points="80,120 120,120 120,80 80,80" style="fill:white;stroke:black;stroke-width:1"/>
<polygon points="120,120 160,120 160,80 120,80" style="fill:white;stroke:black;stroke-width:1"/>
<polygon points="160,120 200,120 200,80 160,80" style="fill:white;stroke:black;stroke-width:1"/>
<polygon points="200,120 240,120 240,80 200,80" style="fill:white;stroke:black;stroke-width:1"/>
<polygon points="240,120 280,120 280,80 240,80" style="fill:white;stroke:black;stroke-width:1"/>
<polygon points="280,120 320,120 320,80 280,80" style="fill:white;stroke:black;stroke-width:1"/>
<polygon points="320,120 360,120 360,80 320,80" style="fill:white;stroke:black;stroke-width:1"/>
<polygon points="360,120 400,120 400,80 360,80" style="fill:white;stroke:black;stroke-width:1"/>
<polygon points="400,120 440,120 440,80 400,80" style="fill:white;stroke:black;stroke-width:1"/>
<polygon points="440,120 480,120 480,80 440,80" style="fill:white;stroke:black;stroke-width:1"/>
<polygon points="480,120 520,120 520,80 480,80" style="fill:white;stroke:black;stroke-width:1"/>
<polygon points="520,120 560,120 560,80 520,80" style="fill:white;stroke:black;stroke-width:1"/>
<polygon points="560,120 600,120 600,80 560,80" style="fill:white;stroke:black;stroke-width:1"/>
<polygon points="600,120 640,120 640,80 600,80" style="fill:white;stroke:black;stroke-width:1"/>
<polygon points="640,120 680,120 680,80 640,80" style="fill:white;stroke:black;stroke-width:1"/>
<polygon points="680,120 720,120 720,80 680,80" style="fill:white;stroke:black;stroke-width:1"/>
<polygon points="720,120 760,120 760,80 720,80" style="fill:white;stroke:black;stroke-width:1"/>
<polygon points="760,120 800,120 800,80 760,80" style="fill:white;stroke:black;stroke-width:1"/>
<polygon points="760,80 800,80 800,40 760,40" style="fill:white;stroke:black;stroke-width:1"/>
<polygon points="760,40 800,40 800,0 760,0" style="fill:white;stroke:black;stroke-width:1"/>
<polygon points="720,40 760,40 760,0 720,0" style="fill:white;stroke:black;stroke-width:1"/>
<polygon points="680,40 720,40 720,0 680,0" style="fill:white;stroke:black;stroke-width:1"/>
<polygon points="640,40 680,40 680,0 640,0" style="fill:white;stroke:black;stroke-width:1"/>
<polygon points="600,40 640,40 640,0 600,0" style="fill:white;stroke:black;stroke-width:1"/>
<polygon points="560,40 600,40 600,0 560,0" style="fill:white;stroke:black;stroke-width:1"/>
<polygon points="520,40 560,40 560,0 520,0" style="fill:white;stroke:black;stroke-width:1"/>
<polygon points="480,40 520,40 520,0 480,0" style="fill:white;stroke:black;stroke-width:1"/>
<polygon points="440,40 480,40 480,0 440,0" style="fill:white;stroke:black;stroke-width:1"/>
<polygon points="400,40 440,40 440,0 400,0" style="fill:white;stroke:black;stroke-width:1"/>
<polygon points="360,40 400,40 400,0 360,0" style="fill:white;stroke:black;stroke-width:1"/>
<polygon points="320,40 360,40 360,0 320,0" style="fill:white;stroke:black;stroke-width:1"/>
<polygon points="280,40 320,40 320,0 280,0" style="fill:white;stroke:black;stroke-width:1"/>
<polygon points="240,40 280,40 280,0 240,0" style="fill:white;stroke:black;stroke-width:1"/>
<polygon points="200,40 240,40 240,0 200,0" style="fill:white;stroke:black;stroke-width:1"/>
<polygon points="160,40 200,40 200,0 160,0" style="fill:white;stroke:black;stroke-width:1"/>
<polygon points="120,40 160,40 160,0 120,0" style="fill:white;stroke:black;stroke-width:1"/>
<polygon points="80,40 120,40 120,0 80,0" style="fill:white;stroke:black;stroke-width:1"/>
<polygon points="40,40 80,40 80,0 40,0" style="fill:white;stroke:black;stroke-width:1"/>
<polygon points="0,40 40,40 40,0 0,0" style="fill:white;stroke:black;stroke-width:1"/>
<polygon points="0,0 40,0 40,-40 0,-40" style="fill:white;stroke:black;stroke-width:1"/>
</svg>
