<svg width="800.0" height="600.0">
<polygon points="784.0,538.0 670.0,494.0 740.0,332.0" style="fill:rgb(58,7,206);stroke-width=0"/>
<polygon points="503.237590053236,739.8204178980326 453.7401153701776,628.097546470558 617.7888886054566,563.0437226013956" style="fill:rgb(58,7,206);stroke-width=0"/>
<polygon points="-39.82041789803259,403.237590053236 71.90245352944203,353.7401153701776 136.95627739860436,517.7888886054566" style="fill:rgb(58,7,206);stroke-width=0"/>
<polygon points="638.0,-84.00000000000006 594.0,30.000000000000057 432.0,-39.99999999999994" style="fill:rgb(58,7,206);stroke-width=0"/>
<polygon points="162.00000000000006,684.0000000000001 206.00000000000003,570.0 368.00000000000006,640.0" style="fill:rgb(58,7,206);stroke-width=0"/>
<polygon points="839.8204178980326,196.76240994676385 728.097546470558,246.25988462982232 663.0437226013956,82.21111139454325" style="fill:rgb(58,7,206);stroke-width=0"/>
<polygon points="296.7624099467638,-139.8204178980326 346.2598846298223,-28.097546470557972 182.2111113945432,36.95627739860441" style="fill:rgb(58,7,206);stroke-width=0"/>
<polygon points="15.999999999999716,62.000000000000256 129.99999999999994,106.00000000000017 59.99999999999994,268.0000000000002" style="fill:rgb(58,7,206);stroke-width=0"/>
<polygon points="401.0,394.0 497.0,448.0 499.0,386.0" style="fill:rgb(185,25,198);stroke-width=0"/>
<polygon points="334.2390693496511,367.17514421272205 363.93755415948607,473.2411613907042 409.19238815542514,430.8147545195113" style="fill:rgb(185,25,198);stroke-width=0"/>
<polygon points="332.82485578727795,234.23906934965112 226.75883860929582,263.93755415948607 269.1852454804887,309.19238815542514" style="fill:rgb(185,25,198);stroke-width=0"/>
<polygon points="494.0,298.99999999999994 548.0,202.99999999999997 486.0,200.99999999999994" style="fill:rgb(185,25,198);stroke-width=0"/>
<polygon points="306.0,301.00000000000006 252.0,397.00000000000006 314.0,399.00000000000006" style="fill:rgb(185,25,198);stroke-width=0"/>
<polygon points="467.17514421272205,365.7609306503489 573.2411613907042,336.0624458405139 530.8147545195113,290.8076118445748" style="fill:rgb(185,25,198);stroke-width=0"/>
<polygon points="465.7609306503489,232.82485578727795 436.0624458405139,126.75883860929582 390.8076118445748,169.18524548048867" style="fill:rgb(185,25,198);stroke-width=0"/>
<polygon points="398.99999999999994,206.0 302.9999999999999,152.00000000000003 300.9999999999999,214.00000000000006" style="fill:rgb(185,25,198);stroke-width=0"/>
<polygon points="631.0,442.0 523.0,512.0 671.0,401.0" style="fill:rgb(85,171,134);stroke-width=0"/>
<polygon points="462.9325035256028,563.7508293825822 337.0674964743973,536.8807716974934 520.2081528017131,563.0437226013956" style="fill:rgb(85,171,134);stroke-width=0"/>
<polygon points="136.2491706174178,362.9325035256028 163.1192283025066,237.06749647439727 136.95627739860436,420.20815280171314" style="fill:rgb(85,171,134);stroke-width=0"/>
<polygon points="542.0,68.99999999999997 612.0,177.0 500.99999999999994,28.999999999999943" style="fill:rgb(85,171,134);stroke-width=0"/>
<polygon points="258.0,531.0 188.00000000000003,423.0 299.0000000000001,571.0" style="fill:rgb(85,171,134);stroke-width=0"/>
<polygon points="663.7508293825822,237.06749647439722 636.8807716974934,362.93250352560267 663.0437226013955,179.7918471982868" style="fill:rgb(85,171,134);stroke-width=0"/>
<polygon points="337.06749647439716,36.2491706174178 462.9325035256026,63.1192283025066 279.79184719828675,36.95627739860447" style="fill:rgb(85,171,134);stroke-width=0"/>
<polygon points="168.99999999999991,158.00000000000014 276.9999999999999,88.00000000000011 128.99999999999994,199.00000000000028" style="fill:rgb(85,171,134);stroke-width=0"/>
<polygon points="475.0,577.0 571.0,397.0 507.0,539.0" style="fill:rgb(80,237,71);stroke-width=0"/>
<polygon points="257.1644302003174,548.9015869776647 452.32590180780454,489.50461735799473 306.66190488337577,544.6589462905454" style="fill:rgb(80,237,71);stroke-width=0"/>
<polygon points="151.0984130223353,157.1644302003174 210.49538264200527,352.32590180780454 155.34105370945463,206.66190488337577" style="fill:rgb(80,237,71);stroke-width=0"/>
<polygon points="677.0,225.0 496.99999999999994,129.0 638.9999999999999,193.0" style="fill:rgb(80,237,71);stroke-width=0"/>
<polygon points="123.0,375.0 303.00000000000006,471.0 161.0000000000001,407.0" style="fill:rgb(80,237,71);stroke-width=0"/>
<polygon points="648.9015869776648,442.8355697996826 589.5046173579947,247.6740981921954 644.6589462905454,393.3380951166242" style="fill:rgb(80,237,71);stroke-width=0"/>
<polygon points="542.8355697996826,51.098413022335166 347.67409819219534,110.49538264200532 493.3380951166241,55.3410537094546" style="fill:rgb(80,237,71);stroke-width=0"/>
<polygon points="324.9999999999999,22.999999999999943 228.99999999999991,203.0000000000002 292.9999999999999,61.00000000000017" style="fill:rgb(80,237,71);stroke-width=0"/>
<polygon points="444.0,590.0 538.0,323.0 624.0,363.0" style="fill:rgb(39,40,20);stroke-width=0"/>
<polygon points="226.05173182810933,536.1736649163068 481.31727983645294,413.84419177103416 513.8441917710342,502.93964620053913" style="fill:rgb(39,40,20);stroke-width=0"/>
<polygon points="163.82633508369315,126.05173182810935 286.15580822896584,381.31727983645294 197.06035379946087,413.84419177103416" style="fill:rgb(39,40,20);stroke-width=0"/>
<polygon points="690.0,255.99999999999994 423.0,162.0 462.99999999999994,76.0" style="fill:rgb(39,40,20);stroke-width=0"/>
<polygon points="110.0,344.0000000000001 377.0,438.0 337.0000000000001,524.0" style="fill:rgb(39,40,20);stroke-width=0"/>
<polygon points="636.173664916307,473.9482681718906 513.8441917710342,218.682720163547 602.9396462005391,186.15580822896572" style="fill:rgb(39,40,20);stroke-width=0"/>
<polygon points="573.9482681718905,63.82633508369301 318.682720163547,186.15580822896584 286.15580822896567,97.06035379946096" style="fill:rgb(39,40,20);stroke-width=0"/>
<polygon points="355.9999999999997,10.000000000000057 262.0,277.00000000000006 175.99999999999991,237.00000000000026" style="fill:rgb(39,40,20);stroke-width=0"/>
<polygon points="503.0,595.0 769.0,478.0 440.0,557.0" style="fill:rgb(196,242,160);stroke-width=0"/>
<polygon points="264.2354980121829,581.4284989122459 535.0573952066306,686.7874093090415 246.5578284825192,510.0107140124046" style="fill:rgb(196,242,160);stroke-width=0"/>
<polygon points="118.57150108775409,164.23549801218294 13.21259069095845,435.05739520663064 189.9892859875954,146.5578284825192" style="fill:rgb(196,242,160);stroke-width=0"/>
<polygon points="695.0,196.99999999999994 578.0,-69.00000000000011 657.0,260.0" style="fill:rgb(196,242,160);stroke-width=0"/>
<polygon points="105.0,403.0000000000001 222.00000000000006,669.0000000000001 143.0,340.0" style="fill:rgb(196,242,160);stroke-width=0"/>
<polygon points="681.428498912246,435.764501987817 786.7874093090415,164.94260479336924 610.0107140124046,453.4421715174808" style="fill:rgb(196,242,160);stroke-width=0"/>
<polygon points="535.764501987817,18.571501087753973 264.9426047933692,-86.78740930904155 553.4421715174808,89.98928598759537" style="fill:rgb(196,242,160);stroke-width=0"/>
<polygon points="296.9999999999998,5.000000000000057 30.999999999999773,122.00000000000023 359.9999999999999,43.0" style="fill:rgb(196,242,160);stroke-width=0"/>
<polygon points="625.0,572.0 546.0,591.0 751.0,578.0" style="fill:rgb(179,112,84);stroke-width=0"/>
<polygon points="366.7659812842323,651.4320702497141 297.46951672795063,609.0056633785213 451.618795026618,744.7701653663385" style="fill:rgb(179,112,84);stroke-width=0"/>
<polygon points="48.567929750285884,266.7659812842323 90.99433662147874,197.46951672795063 -44.77016536633846,351.61879502661805" style="fill:rgb(179,112,84);stroke-width=0"/>
<polygon points="672.0,75.0 691.0,153.99999999999997 678.0,-51.000000000000114" style="fill:rgb(179,112,84);stroke-width=0"/>
<polygon points="128.0,525.0 109.0,446.00000000000006 122.00000000000006,651.0000000000002" style="fill:rgb(179,112,84);stroke-width=0"/>
<polygon points="751.4320702497141,333.23401871576766 709.0056633785214,402.5304832720493 844.7701653663385,248.38120497338176" style="fill:rgb(179,112,84);stroke-width=0"/>
<polygon points="433.2340187157676,-51.432070249714116 502.53048327204925,-9.005663378521376 348.38120497338167,-144.77016536633846" style="fill:rgb(179,112,84);stroke-width=0"/>
<polygon points="174.99999999999986,28.000000000000114 253.99999999999977,9.000000000000057 48.99999999999966,22.00000000000034" style="fill:rgb(179,112,84);stroke-width=0"/>
<polygon points="426.0,492.0 486.0,409.0 563.0,332.0" style="fill:rgb(42,45,53);stroke-width=0"/>
<polygon points="282.62027432303313,454.14927829866735 383.7365440327094,437.88582233137674 492.63098833543773,437.88582233137674" style="fill:rgb(42,45,53);stroke-width=0"/>
<polygon points="245.85072170133265,182.62027432303313 262.11417766862326,283.7365440327094 262.11417766862326,392.63098833543773" style="fill:rgb(42,45,53);stroke-width=0"/>
<polygon points="592.0,274.0 509.0,214.00000000000003 431.99999999999994,137.0" style="fill:rgb(42,45,53);stroke-width=0"/>
<polygon points="208.0,326.0 291.0,386.0 368.00000000000006,463.0" style="fill:rgb(42,45,53);stroke-width=0"/>
<polygon points="554.1492782986674,417.37972567696687 537.8858223313767,316.26345596729055 537.8858223313767,207.3690116645622" style="fill:rgb(42,45,53);stroke-width=0"/>
<polygon points="517.3797256769668,145.85072170133262 416.26345596729055,162.11417766862326 307.3690116645622,162.11417766862328" style="fill:rgb(42,45,53);stroke-width=0"/>
<polygon points="373.9999999999999,108.00000000000006 314.0,191.00000000000006 237.0,268.0000000000001" style="fill:rgb(42,45,53);stroke-width=0"/>
<polygon points="658.0,436.0 544.0,460.0 621.0,411.0" style="fill:rgb(201,78,63);stroke-width=0"/>
<polygon points="486.2670273047588,578.6000717874997 388.68629150101526,514.9604614807105 477.78174593052023,534.7594513539337" style="fill:rgb(201,78,63);stroke-width=0"/>
<polygon points="121.3999282125003,386.2670273047588 185.03953851928952,288.68629150101526 165.24054864606626,377.78174593052023" style="fill:rgb(201,78,63);stroke-width=0"/>
<polygon points="536.0,42.0 560.0,155.99999999999994 511.0,79.00000000000003" style="fill:rgb(201,78,63);stroke-width=0"/>
<polygon points="264.0,558.0 240.00000000000003,444.0000000000001 289.0,521.0" style="fill:rgb(201,78,63);stroke-width=0"/>
<polygon points="678.6000717874997,213.73297269524113 614.9604614807106,311.3137084989846 634.7594513539339,222.2182540694797" style="fill:rgb(201,78,63);stroke-width=0"/>
<polygon points="313.7329726952411,21.3999282125003 411.31370849898457,85.03953851928941 322.21825406947966,65.24054864606617" style="fill:rgb(201,78,63);stroke-width=0"/>
<polygon points="141.9999999999999,164.00000000000017 255.99999999999972,140.00000000000009 178.99999999999983,189.00000000000009" style="fill:rgb(201,78,63);stroke-width=0"/>
<polygon points="646.0,516.0 647.0,596.0 549.0,502.0" style="fill:rgb(12,179,50);stroke-width=0"/>
<polygon points="421.2132034355965,626.683332908185 365.35176772185923,683.9589821842953 362.523340597113,548.1944801964783" style="fill:rgb(12,179,50);stroke-width=0"/>
<polygon points="73.31666709181502,321.2132034355965 16.041017815704663,265.35176772185923 151.80551980352175,262.523340597113" style="fill:rgb(12,179,50);stroke-width=0"/>
<polygon points="616.0,53.99999999999994 696.0,52.999999999999886 602.0,150.99999999999991" style="fill:rgb(12,179,50);stroke-width=0"/>
<polygon points="184.00000000000003,546.0000000000001 104.00000000000006,547.0000000000001 198.00000000000003,449.0000000000001" style="fill:rgb(12,179,50);stroke-width=0"/>
<polygon points="726.6833329081851,278.7867965644034 783.9589821842953,334.64823227814065 648.1944801964783,337.47665940288687" style="fill:rgb(12,179,50);stroke-width=0"/>
<polygon points="378.78679656440335,-26.683332908185093 434.6482322781406,-83.95898218429534 437.4766594028868,51.80551980352175" style="fill:rgb(12,179,50);stroke-width=0"/>
<polygon points="153.9999999999997,84.00000000000014 152.99999999999977,4.000000000000227 250.99999999999977,98.00000000000014" style="fill:rgb(12,179,50);stroke-width=0"/>
<polygon points="720.0,482.0 404.0,383.0 440.0,517.0" style="fill:rgb(102,4,31);stroke-width=0"/>
<polygon points="497.58073580374355,654.9676041556469 344.13856428626275,361.5182899632296 274.8420997299811,481.7264427649427" style="fill:rgb(102,4,31);stroke-width=0"/>
<polygon points="45.03239584435312,397.58073580374355 338.4817100367704,244.13856428626275 218.2735572350573,174.8420997299811" style="fill:rgb(102,4,31);stroke-width=0"/>
<polygon points="582.0,-20.0 483.0,296.0 617.0,260.0" style="fill:rgb(102,4,31);stroke-width=0"/>
<polygon points="218.00000000000003,620.0 317.0,304.0 183.0,340.0" style="fill:rgb(102,4,31);stroke-width=0"/>
<polygon points="754.9676041556469,202.41926419625634 461.5182899632297,355.86143571373725 581.7264427649427,425.1579002700189" style="fill:rgb(102,4,31);stroke-width=0"/>
<polygon points="302.4192641962563,-54.96760415564688 455.86143571373725,238.48171003677032 525.1579002700189,118.27355723505727" style="fill:rgb(102,4,31);stroke-width=0"/>
<polygon points="79.99999999999983,118.00000000000017 395.99999999999994,216.99999999999997 359.99999999999994,83.0" style="fill:rgb(102,4,31);stroke-width=0"/>
<polygon points="729.0,572.0 467.0,547.0 452.0,336.0" style="fill:rgb(82,95,128);stroke-width=0"/>
<polygon points="440.3050865276332,724.9711754931151 272.72077938642144,522.0315292925759 411.31370849898474,362.2253967444162" style="fill:rgb(82,95,128);stroke-width=0"/>
<polygon points="-24.971175493115084,340.3050865276332 177.9684707074241,172.72077938642144 337.7746032555838,311.31370849898474" style="fill:rgb(82,95,128);stroke-width=0"/>
<polygon points="672.0,-29.000000000000057 647.0,233.0 436.0,248.0" style="fill:rgb(82,95,128);stroke-width=0"/>
<polygon points="128.00000000000006,629.0000000000001 153.0,367.0 364.0,352.0" style="fill:rgb(82,95,128);stroke-width=0"/>
<polygon points="824.9711754931151,259.6949134723666 622.0315292925759,427.27922061357856 462.2253967444162,288.68629150101526" style="fill:rgb(82,95,128);stroke-width=0"/>
<polygon points="359.6949134723665,-124.97117549311508 527.2792206135786,77.96847070742407 388.68629150101526,237.77460325558383" style="fill:rgb(82,95,128);stroke-width=0"/>
<polygon points="70.99999999999977,28.000000000000227 332.99999999999994,53.0 348.0,264.0" style="fill:rgb(82,95,128);stroke-width=0"/>
<polygon points="441.0,520.0 696.0,489.0 571.0,454.0" style="fill:rgb(24,76,67);stroke-width=0"/>
<polygon points="273.427886167608,484.5548698896889 475.6604255869606,642.9467888754755 412.02081528017135,529.809703885628" style="fill:rgb(24,76,67);stroke-width=0"/>
<polygon points="215.44513011031108,173.427886167608 57.05321112452452,375.6604255869606 170.19029611437202,312.02081528017135" style="fill:rgb(24,76,67);stroke-width=0"/>
<polygon points="620.0,258.99999999999994 588.9999999999999,4.0 554.0,128.99999999999994" style="fill:rgb(24,76,67);stroke-width=0"/>
<polygon points="180.0,341.0000000000001 211.00000000000014,596.0 246.00000000000003,471.0000000000001" style="fill:rgb(24,76,67);stroke-width=0"/>
<polygon points="584.554869889689,426.5721138323919 742.9467888754755,224.33957441303926 629.809703885628,287.97918471982854" style="fill:rgb(24,76,67);stroke-width=0"/>
<polygon points="526.5721138323919,115.44513011031094 324.3395744130392,-42.94678887547548 387.9791847198285,70.19029611437202" style="fill:rgb(24,76,67);stroke-width=0"/>
<polygon points="358.9999999999998,79.99999999999997 103.99999999999989,111.00000000000028 228.9999999999998,146.00000000000014" style="fill:rgb(24,76,67);stroke-width=0"/>
<polygon points="727.0,366.0 707.0,306.0 744.0,386.0" style="fill:rgb(116,228,2);stroke-width=0"/>
<polygon points="584.5548698896889,577.8929650063131 612.8391411371508,521.3244225113893 582.4335495461293,604.0559159102154" style="fill:rgb(116,228,2);stroke-width=0"/>
<polygon points="122.10703499368685,484.5548698896889 178.67557748861066,512.8391411371508 95.94408408978461,482.43354954612926" style="fill:rgb(116,228,2);stroke-width=0"/>
<polygon points="465.99999999999994,-27.0 405.99999999999994,-7.0 485.99999999999994,-43.99999999999994" style="fill:rgb(116,228,2);stroke-width=0"/>
<polygon points="334.0000000000001,627.0 394.0000000000001,607.0 314.0000000000001,644.0" style="fill:rgb(116,228,2);stroke-width=0"/>
<polygon points="677.892965006313,115.44513011031097 621.3244225113892,87.16085886284907 704.0559159102154,117.5664504538706" style="fill:rgb(116,228,2);stroke-width=0"/>
<polygon points="215.4451301103109,22.107034993687023 187.16085886284904,78.6755774886108 217.56645045387054,-4.055915910215333" style="fill:rgb(116,228,2);stroke-width=0"/>
<polygon points="73.0,234.00000000000037 93.0,294.00000000000034 55.999999999999886,214.00000000000028" style="fill:rgb(116,228,2);stroke-width=0"/>
<polygon points="562.0,341.0 603.0,500.0 475.0,360.0" style="fill:rgb(2,131,31);stroke-width=0"/>
<polygon points="485.55992052357226,443.54267658086917 402.12132034355966,584.9640328181787 410.60660171779824,395.4594154601839" style="fill:rgb(2,131,31);stroke-width=0"/>
<polygon points="256.45732341913083,385.55992052357226 115.03596718182132,302.12132034355966 304.5405845398161,310.60660171779824" style="fill:rgb(2,131,31);stroke-width=0"/>
<polygon points="441.0,137.99999999999997 600.0,96.99999999999997 459.99999999999994,225.0" style="fill:rgb(2,131,31);stroke-width=0"/>
<polygon points="359.0,462.0 200.00000000000003,503.00000000000006 340.00000000000006,375.0" style="fill:rgb(2,131,31);stroke-width=0"/>
<polygon points="543.5426765808692,214.4400794764277 684.9640328181787,297.8786796564402 495.4594154601839,289.39339828220176" style="fill:rgb(2,131,31);stroke-width=0"/>
<polygon points="314.4400794764277,156.45732341913086 397.87867965644017,15.03596718182132 389.39339828220176,204.5405845398161" style="fill:rgb(2,131,31);stroke-width=0"/>
<polygon points="237.99999999999994,259.0000000000001 196.9999999999998,100.00000000000017 325.0,240.00000000000006" style="fill:rgb(2,131,31);stroke-width=0"/>
<polygon points="550.0,419.0 687.0,327.0 546.0,500.0" style="fill:rgb(75,178,59);stroke-width=0"/>
<polygon points="421.920310216783,490.2117241391813 583.8477631085024,522.0315292925759 361.81623381592647,544.6589462905454" style="fill:rgb(75,178,59);stroke-width=0"/>
<polygon points="209.78827586081871,321.920310216783 177.9684707074241,483.84776310850236 155.34105370945463,261.81623381592647" style="fill:rgb(75,178,59);stroke-width=0"/>
<polygon points="519.0,150.0 427.0,13.0 599.9999999999999,154.0" style="fill:rgb(75,178,59);stroke-width=0"/>
<polygon points="281.0,450.0 373.00000000000006,587.0 200.00000000000014,446.0" style="fill:rgb(75,178,59);stroke-width=0"/>
<polygon points="590.2117241391813,278.079689783217 622.0315292925759,116.15223689149755 644.6589462905454,338.1837661840734" style="fill:rgb(75,178,59);stroke-width=0"/>
<polygon points="378.07968978321696,109.78827586081866 216.15223689149752,77.96847070742413 438.18376618407336,55.34105370945463" style="fill:rgb(75,178,59);stroke-width=0"/>
<polygon points="249.9999999999999,181.00000000000006 112.99999999999994,273.0000000000002 253.99999999999986,100.00000000000023" style="fill:rgb(75,178,59);stroke-width=0"/>
<polygon points="551.0,596.0 674.0,366.0 655.0,352.0" style="fill:rgb(190,118,166);stroke-width=0"/>
<polygon points="297.46951672795063,616.0767311903867 547.0782104868019,540.4163056034262 543.5426765808692,517.0817818242701" style="fill:rgb(190,118,166);stroke-width=0"/>
<polygon points="83.92326880961332,197.46951672795063 159.58369439657383,447.07821048680194 182.91821817572986,443.54267658086917" style="fill:rgb(190,118,166);stroke-width=0"/>
<polygon points="696.0,149.0 465.99999999999994,25.999999999999943 452.0,44.99999999999994" style="fill:rgb(190,118,166);stroke-width=0"/>
<polygon points="104.0,451.0 334.0000000000001,574.0 348.0,555.0" style="fill:rgb(190,118,166);stroke-width=0"/>
<polygon points="716.0767311903868,402.53048327204937 640.416305603426,152.921789513198 617.0817818242701,156.45732341913083" style="fill:rgb(190,118,166);stroke-width=0"/>
<polygon points="502.5304832720493,-16.076731190386795 252.92178951319795,59.583694396573975 256.45732341913083,82.91821817572989" style="fill:rgb(190,118,166);stroke-width=0"/>
<polygon points="248.99999999999983,4.000000000000057 126.0,234.00000000000028 144.99999999999994,248.00000000000006" style="fill:rgb(190,118,166);stroke-width=0"/>
<polygon points="749.0,437.0 431.0,369.0 661.0,532.0" style="fill:rgb(71,10,123);stroke-width=0"/>
<polygon points="549.9066376115481,643.6538956566621 373.1299423149112,370.71067811865476 420.50609665440993,648.6036431249679" style="fill:rgb(71,10,123);stroke-width=0"/>
<polygon points="56.346104343337856,449.90663761154815 329.28932188134524,273.1299423149112 51.3963568750321,320.50609665440993" style="fill:rgb(71,10,123);stroke-width=0"/>
<polygon points="537.0,-49.000000000000114 469.0,269.0 632.0,38.99999999999994" style="fill:rgb(71,10,123);stroke-width=0"/>
<polygon points="263.00000000000006,649.0000000000001 331.0,331.0 168.00000000000003,561.0" style="fill:rgb(71,10,123);stroke-width=0"/>
<polygon points="743.6538956566621,150.09336238845174 470.71067811865476,326.8700576850888 748.6036431249679,279.49390334559007" style="fill:rgb(71,10,123);stroke-width=0"/>
<polygon points="250.09336238845168,-43.653895656662144 426.8700576850888,229.28932188134524 379.49390334559,-48.6036431249679" style="fill:rgb(71,10,123);stroke-width=0"/>
<polygon points="50.99999999999977,163.00000000000023 369.0,231.0 138.9999999999999,68.00000000000017" style="fill:rgb(71,10,123);stroke-width=0"/>
<polygon points="634.0,581.0 650.0,595.0 725.0,565.0" style="fill:rgb(117,45,55);stroke-width=0"/>
<polygon points="366.7659812842323,664.159992311072 368.1801948466054,685.3731957466684 442.42640687119285,717.193000900063" style="fill:rgb(117,45,55);stroke-width=0"/>
<polygon points="35.84000768892804,266.7659812842323 14.626804253331557,268.1801948466054 -17.193000900062998,342.42640687119285" style="fill:rgb(117,45,55);stroke-width=0"/>
<polygon points="681.0,66.0 695.0,49.999999999999915 665.0,-25.0" style="fill:rgb(117,45,55);stroke-width=0"/>
<polygon points="119.00000000000006,534.0 105.00000000000006,550.0000000000001 135.00000000000006,625.0" style="fill:rgb(117,45,55);stroke-width=0"/>
<polygon points="764.159992311072,333.23401871576766 785.3731957466684,331.81980515339444 817.193000900063,257.57359312880703" style="fill:rgb(117,45,55);stroke-width=0"/>
<polygon points="433.2340187157676,-64.15999231107196 431.8198051533944,-85.37319574666844 357.573593128807,-117.193000900063" style="fill:rgb(117,45,55);stroke-width=0"/>
<polygon points="165.99999999999986,19.000000000000114 149.99999999999972,5.000000000000227 74.99999999999983,35.00000000000023" style="fill:rgb(117,45,55);stroke-width=0"/>
<polygon points="584.0,550.0 486.0,546.0 781.0,580.0" style="fill:rgb(171,54,110);stroke-width=0"/>
<polygon points="353.3309524416879,606.8843430349616 286.8629150101524,534.7594513539339 471.4177848998413,767.3975823643079" style="fill:rgb(171,54,110);stroke-width=0"/>
<polygon points="93.1156569650384,253.3309524416879 165.24054864606615,186.8629150101524 -67.39758236430794,371.4177848998413" style="fill:rgb(171,54,110);stroke-width=0"/>
<polygon points="650.0,115.99999999999997 646.0,213.99999999999994 680.0,-81.00000000000006" style="fill:rgb(171,54,110);stroke-width=0"/>
<polygon points="150.00000000000003,484.00000000000006 154.0,386.0000000000001 120.00000000000006,681.0000000000001" style="fill:rgb(171,54,110);stroke-width=0"/>
<polygon points="706.8843430349616,346.66904755831206 634.7594513539339,413.1370849898475 867.3975823643079,228.58221510015852" style="fill:rgb(171,54,110);stroke-width=0"/>
<polygon points="446.669047558312,-6.884343034961603 513.1370849898475,65.24054864606612 328.58221510015846,-167.39758236430794" style="fill:rgb(171,54,110);stroke-width=0"/>
<polygon points="215.99999999999986,50.00000000000014 313.9999999999998,54.00000000000003 18.999999999999716,20.000000000000227" style="fill:rgb(171,54,110);stroke-width=0"/>
<polygon points="491.0,340.0 611.0,396.0 548.0,474.0" style="fill:rgb(110,42,30);stroke-width=0"/>
<polygon points="436.06244584051393,392.63098833543773 481.317279836453,517.0817818242701 381.6152236891498,527.6883835420683" style="fill:rgb(110,42,30);stroke-width=0"/>
<polygon points="307.36901166456227,336.06244584051393 182.91821817572986,381.317279836453 172.31161645793168,281.6152236891498" style="fill:rgb(110,42,30);stroke-width=0"/>
<polygon points="440.0,209.0 496.0,88.99999999999994 574.0,151.99999999999994" style="fill:rgb(110,42,30);stroke-width=0"/>
<polygon points="360.0,391.0 304.0,511.00000000000006 226.00000000000003,448.0000000000001" style="fill:rgb(110,42,30);stroke-width=0"/>
<polygon points="492.63098833543773,263.93755415948607 617.0817818242701,218.68272016354695 627.6883835420683,318.3847763108501" style="fill:rgb(110,42,30);stroke-width=0"/>
<polygon points="363.93755415948607,207.36901166456227 318.6827201635469,82.91821817572989 418.38477631085004,72.31161645793168" style="fill:rgb(110,42,30);stroke-width=0"/>
<polygon points="309.0,260.0 188.99999999999986,204.00000000000014 251.9999999999998,126.00000000000017" style="fill:rgb(110,42,30);stroke-width=0"/>
<polygon points="468.0,385.0 527.0,564.0 568.0,532.0" style="fill:rgb(88,49,116);stroke-width=0"/>
<polygon points="387.9791847198287,408.18733752154174 303.126370977443,576.47875144394 354.745166004061,582.842712474619" style="fill:rgb(88,49,116);stroke-width=0"/>
<polygon points="291.81266247845826,287.9791847198287 123.52124855605996,203.126370977443 117.15728752538098,254.745166004061" style="fill:rgb(88,49,116);stroke-width=0"/>
<polygon points="484.99999999999994,232.0 664.0,173.0 632.0,131.99999999999994" style="fill:rgb(88,49,116);stroke-width=0"/>
<polygon points="315.00000000000006,368.0 136.0,427.0 168.00000000000003,468.0000000000001" style="fill:rgb(88,49,116);stroke-width=0"/>
<polygon points="508.18733752154174,312.02081528017123 676.4787514439402,396.873629022557 682.842712474619,345.2548339959389" style="fill:rgb(88,49,116);stroke-width=0"/>
<polygon points="412.02081528017123,191.81266247845826 496.87362902255694,23.521248556059845 445.25483399593884,17.15728752538098" style="fill:rgb(88,49,116);stroke-width=0"/>
<polygon points="331.99999999999994,215.00000000000009 272.99999999999983,36.0 231.9999999999998,68.00000000000017" style="fill:rgb(88,49,116);stroke-width=0"/>
<polygon points="429.0,542.0 596.0,338.0 550.0,389.0" style="fill:rgb(21,8,13);stroke-width=0"/>
<polygon points="249.38625560726538,491.6259377015544 511.7228714274745,465.4629867976521 443.1335136523794,468.99852070358486" style="fill:rgb(21,8,13);stroke-width=0"/>
<polygon points="208.3740622984456,149.38625560726538 234.5370132023479,411.7228714274745 231.00147929641514,343.1335136523794" style="fill:rgb(21,8,13);stroke-width=0"/>
<polygon points="642.0,270.99999999999994 438.0,104.00000000000003 489.0,149.99999999999997" style="fill:rgb(21,8,13);stroke-width=0"/>
<polygon points="158.0,329.0000000000001 362.0,496.0 311.0,450.0" style="fill:rgb(21,8,13);stroke-width=0"/>
<polygon points="591.6259377015544,450.61374439273453 565.4629867976521,188.27712857252544 568.9985207035849,256.8664863476206" style="fill:rgb(21,8,13);stroke-width=0"/>
<polygon points="550.6137443927345,108.37406229844552 288.2771285725254,134.53701320234794 356.8664863476206,131.00147929641514" style="fill:rgb(21,8,13);stroke-width=0"/>
<polygon points="370.9999999999998,58.00000000000006 203.99999999999994,262.00000000000017 249.99999999999997,211.00000000000006" style="fill:rgb(21,8,13);stroke-width=0"/>
<polygon points="554.0,413.0 595.0,378.0 479.0,440.0" style="fill:rgb(240,228,51);stroke-width=0"/>
<polygon points="428.99137802864846,488.7975105768082 482.73149339882605,493.04015126392744 356.8664863476206,454.8563850798539" style="fill:rgb(240,228,51);stroke-width=0"/>
<polygon points="211.20248942319182,328.99137802864846 206.95984873607256,382.73149339882605 245.1436149201461,256.8664863476206" style="fill:rgb(240,228,51);stroke-width=0"/>
<polygon points="513.0,146.0 478.0,105.0 540.0,221.0" style="fill:rgb(240,228,51);stroke-width=0"/>
<polygon points="287.0,454.0 322.0,495.0 260.0,379.0" style="fill:rgb(240,228,51);stroke-width=0"/>
<polygon points="588.7975105768082,271.00862197135154 593.0401512639274,217.2685066011739 554.8563850798539,343.1335136523794" style="fill:rgb(240,228,51);stroke-width=0"/>
<polygon points="371.0086219713515,111.20248942319176 317.26850660117384,106.95984873607259 443.1335136523794,145.1436149201461" style="fill:rgb(240,228,51);stroke-width=0"/>
<polygon points="245.99999999999991,187.00000000000006 204.99999999999994,222.00000000000017 321.0,160.00000000000003" style="fill:rgb(240,228,51);stroke-width=0"/>
<polygon points="478.0,525.0 685.0,494.0 667.0,455.0" style="fill:rgb(59,183,63);stroke-width=0"/>
<polygon points="296.0553031655775,514.2533546995239 464.34671708797583,638.7041481883563 479.19595949289334,598.3990616607231" style="fill:rgb(59,183,63);stroke-width=0"/>
<polygon points="185.74664530047608,196.05530316557753 61.29585181164373,364.34671708797583 101.60093833927692,379.19595949289334" style="fill:rgb(59,183,63);stroke-width=0"/>
<polygon points="625.0,221.99999999999994 594.0,15.0 555.0,32.99999999999994" style="fill:rgb(59,183,63);stroke-width=0"/>
<polygon points="175.0,378.0000000000001 206.00000000000003,585.0 245.00000000000003,567.0" style="fill:rgb(59,183,63);stroke-width=0"/>
<polygon points="614.253354699524,403.94469683442236 738.7041481883563,235.6532829120241 698.3990616607231,220.8040405071066" style="fill:rgb(59,183,63);stroke-width=0"/>
<polygon points="503.9446968344223,85.74664530047593 335.65328291202405,-38.70414818835627 320.80404050710655,1.6009383392769223" style="fill:rgb(59,183,63);stroke-width=0"/>
<polygon points="321.9999999999997,75.00000000000003 114.99999999999989,106.00000000000017 132.9999999999999,145.00000000000014" style="fill:rgb(59,183,63);stroke-width=0"/>
<polygon points="721.0,471.0 798.0,540.0 591.0,407.0" style="fill:rgb(250,95,165);stroke-width=0"/>
<polygon points="506.06601717798213,647.8965363437813 511.7228714274745,751.1341263970173 459.39696961967,510.71782079359116" style="fill:rgb(250,95,165);stroke-width=0"/>
<polygon points="52.10346365621865,406.06601717798213 -51.134126397017326,411.7228714274745 189.28217920640884,359.39696961967" style="fill:rgb(250,95,165);stroke-width=0"/>
<polygon points="571.0,-21.0 640.0,-98.0 506.99999999999994,109.0" style="fill:rgb(250,95,165);stroke-width=0"/>
<polygon points="229.00000000000003,621.0 160.00000000000006,698.0 293.0000000000001,491.0" style="fill:rgb(250,95,165);stroke-width=0"/>
<polygon points="747.8965363437813,193.9339828220178 851.1341263970173,188.27712857252538 610.717820793591,240.60303038032987" style="fill:rgb(250,95,165);stroke-width=0"/>
<polygon points="293.93398282201775,-47.89653634378135 288.27712857252527,-151.13412639701733 340.6030303803298,89.28217920640895" style="fill:rgb(250,95,165);stroke-width=0"/>
<polygon points="78.99999999999989,129.00000000000017 1.9999999999997726,60.00000000000023 208.99999999999994,193.00000000000026" style="fill:rgb(250,95,165);stroke-width=0"/>
<polygon points="624.0,407.0 454.0,434.0 494.0,354.0" style="fill:rgb(78,190,81);stroke-width=0"/>
<polygon points="482.73149339882605,534.0523445727472 343.4314575050762,432.9360748630709 428.2842712474619,404.651803615609" style="fill:rgb(78,190,81);stroke-width=0"/>
<polygon points="165.9476554272528,382.73149339882605 267.0639251369291,243.4314575050762 295.348196384391,328.2842712474619" style="fill:rgb(78,190,81);stroke-width=0"/>
<polygon points="506.99999999999994,76.00000000000006 534.0,246.0 454.0,206.0" style="fill:rgb(78,190,81);stroke-width=0"/>
<polygon points="293.0000000000001,524.0 266.0,354.0 346.0,394.0" style="fill:rgb(78,190,81);stroke-width=0"/>
<polygon points="634.0523445727472,217.26850660117384 532.936074863071,356.5685424949238 504.651803615609,271.7157287525381" style="fill:rgb(78,190,81);stroke-width=0"/>
<polygon points="317.2685066011738,65.94765542725284 456.5685424949238,167.06392513692902 371.7157287525381,195.34819638439097" style="fill:rgb(78,190,81);stroke-width=0"/>
<polygon points="175.9999999999999,193.0000000000002 345.99999999999994,165.99999999999997 306.0,246.00000000000003" style="fill:rgb(78,190,81);stroke-width=0"/>
<polygon points="493.0,311.0 630.0,402.0 795.0,442.0" style="fill:rgb(56,32,229);stroke-width=0"/>
<polygon points="457.9827560572969,373.53910524340097 490.5096679918781,534.7594513539337 578.8980156401966,679.716341497176" style="fill:rgb(56,32,229);stroke-width=0"/>
<polygon points="326.46089475659903,357.9827560572969 165.24054864606626,390.5096679918781 20.283658502823982,478.8980156401966" style="fill:rgb(56,32,229);stroke-width=0"/>
<polygon points="411.0,206.99999999999997 502.0,70.00000000000006 542.0,-95.00000000000006" style="fill:rgb(56,32,229);stroke-width=0"/>
<polygon points="389.0,393.0 298.0,530.0 258.00000000000006,695.0" style="fill:rgb(56,32,229);stroke-width=0"/>
<polygon points="473.53910524340097,242.0172439427031 634.7594513539337,209.49033200812187 779.716341497176,121.1019843598034" style="fill:rgb(56,32,229);stroke-width=0"/>
<polygon points="342.0172439427031,226.46089475659903 309.4903320081218,65.24054864606629 221.10198435980334,-79.71634149717596" style="fill:rgb(56,32,229);stroke-width=0"/>
<polygon points="307.0,289.0 169.99999999999994,198.00000000000017 4.999999999999943,158.00000000000023" style="fill:rgb(56,32,229);stroke-width=0"/>
<polygon points="685.0,503.0 588.0,527.0 752.0,460.0" style="fill:rgb(197,29,87);stroke-width=0"/>
<polygon points="457.9827560572969,645.0681092190353 372.42283553372465,593.4493141924172 535.7645019878171,662.0386719675123" style="fill:rgb(197,29,87);stroke-width=0"/>
<polygon points="54.93189078096475,357.9827560572969 106.5506858075828,272.42283553372465 37.9613280324877,435.7645019878171" style="fill:rgb(197,29,87);stroke-width=0"/>
<polygon points="603.0,14.999999999999943 627.0,112.0 560.0,-51.99999999999994" style="fill:rgb(197,29,87);stroke-width=0"/>
<polygon points="197.00000000000003,585.0 173.00000000000003,488.0 240.00000000000006,652.0" style="fill:rgb(197,29,87);stroke-width=0"/>
<polygon points="745.0681092190353,242.01724394270303 693.4493141924172,327.5771644662753 762.0386719675123,164.23549801218277" style="fill:rgb(197,29,87);stroke-width=0"/>
<polygon points="342.017243942703,-45.06810921903525 427.57716446627524,6.550685807582795 264.2354980121827,-62.0386719675123" style="fill:rgb(197,29,87);stroke-width=0"/>
<polygon points="114.99999999999983,97.00000000000011 211.9999999999999,73.00000000000014 47.99999999999983,140.00000000000023" style="fill:rgb(197,29,87);stroke-width=0"/>
<polygon points="699.0,335.0 416.0,441.0 681.0,402.0" style="fill:rgb(177,202,50);stroke-width=0"/>
<polygon points="586.6761902332486,536.1736649163068 311.6116523516816,411.01576464628795 526.572113832392,570.8218971944477" style="fill:rgb(177,202,50);stroke-width=0"/>
<polygon points="163.82633508369315,486.6761902332486 288.98423535371205,211.61165235168158 129.17810280555227,426.572113832392" style="fill:rgb(177,202,50);stroke-width=0"/>
<polygon points="434.99999999999994,1.0 541.0,284.0 502.0,19.0" style="fill:rgb(177,202,50);stroke-width=0"/>
<polygon points="365.0000000000001,599.0 259.0,316.0 298.0,581.0" style="fill:rgb(177,202,50);stroke-width=0"/>
<polygon points="636.1736649163067,113.32380976675131 511.01576464628795,388.3883476483184 670.8218971944477,173.42788616760794" style="fill:rgb(177,202,50);stroke-width=0"/>
<polygon points="213.32380976675125,63.826335083693294 488.3883476483184,188.98423535371205 273.4278861676079,29.17810280555227" style="fill:rgb(177,202,50);stroke-width=0"/>
<polygon points="101.0,265.00000000000034 383.99999999999994,159.00000000000003 118.99999999999989,198.0000000000001" style="fill:rgb(177,202,50);stroke-width=0"/>
<polygon points="514.0,488.0 443.0,371.0 574.0,425.0" style="fill:rgb(84,133,139);stroke-width=0"/>
<polygon points="347.6740981921955,513.5462479183374 380.2010101267767,380.6101730552664 434.6482322781409,511.4249275747777" style="fill:rgb(84,133,139);stroke-width=0"/>
<polygon points="186.45375208166263,247.67409819219552 319.3898269447336,280.2010101267767 188.5750724252223,334.6482322781409" style="fill:rgb(84,133,139);stroke-width=0"/>
<polygon points="588.0,185.99999999999994 471.0,257.0 525.0,125.99999999999997" style="fill:rgb(84,133,139);stroke-width=0"/>
<polygon points="212.0,414.0000000000001 329.0,343.0 275.0,474.00000000000006" style="fill:rgb(84,133,139);stroke-width=0"/>
<polygon points="613.5462479183375,352.3259018078044 480.61017305526644,319.7989898732233 611.4249275747777,265.3517677218591" style="fill:rgb(84,133,139);stroke-width=0"/>
<polygon points="452.32590180780437,86.45375208166251 419.7989898732233,219.38982694473356 365.35176772185906,88.57507242522229" style="fill:rgb(84,133,139);stroke-width=0"/>
<polygon points="285.9999999999998,112.00000000000003 356.99999999999994,229.0 225.9999999999999,175.0000000000001" style="fill:rgb(84,133,139);stroke-width=0"/>
<polygon points="789.0,328.0 621.0,497.0 490.0,412.0" style="fill:rgb(57,217,121);stroke-width=0"/>
<polygon points="655.2655480083437,594.8635277547903 416.97056274847716,595.5706345359769 384.44365081389594,442.8355697996826" style="fill:rgb(57,217,121);stroke-width=0"/>
<polygon points="105.13647224520969,555.2655480083437 104.42936546402314,316.97056274847716 257.1644302003174,284.44365081389594" style="fill:rgb(57,217,121);stroke-width=0"/>
<polygon points="427.99999999999994,-89.0 597.0,78.99999999999997 512.0,210.0" style="fill:rgb(57,217,121);stroke-width=0"/>
<polygon points="372.0000000000001,689.0 203.00000000000003,521.0 288.0,390.0" style="fill:rgb(57,217,121);stroke-width=0"/>
<polygon points="694.8635277547902,44.734451991656215 695.5706345359769,283.0294372515228 542.8355697996826,315.556349186104" style="fill:rgb(57,217,121);stroke-width=0"/>
<polygon points="144.73445199165616,5.136472245209859 383.0294372515227,4.429365464023135 415.556349186104,157.16443020031738" style="fill:rgb(57,217,121);stroke-width=0"/>
<polygon points="11.0,272.00000000000034 178.99999999999986,103.00000000000017 309.99999999999994,188.00000000000006" style="fill:rgb(57,217,121);stroke-width=0"/>
<polygon points="799.0,494.0 752.0,479.0 723.0,365.0" style="fill:rgb(152,10,14);stroke-width=0"/>
<polygon points="544.9568901432423,719.3143212436227 522.3294731452728,675.4737008100567 582.4335495461293,574.3574311003804" style="fill:rgb(152,10,14);stroke-width=0"/>
<polygon points="-19.314321243622658,444.9568901432423 24.526299189943302,422.3294731452728 125.64256889961962,482.43354954612926" style="fill:rgb(152,10,14);stroke-width=0"/>
<polygon points="593.9999999999999,-99.0 578.9999999999999,-52.00000000000006 464.99999999999994,-22.999999999999943" style="fill:rgb(152,10,14);stroke-width=0"/>
<polygon points="206.00000000000017,699.0 221.00000000000017,652.0 335.0000000000001,623.0" style="fill:rgb(152,10,14);stroke-width=0"/>
<polygon points="819.3143212436225,155.04310985675755 775.4737008100566,177.6705268547271 674.3574311003804,117.5664504538706" style="fill:rgb(152,10,14);stroke-width=0"/>
<polygon points="255.04310985675747,-119.31432124362254 277.67052685472703,-75.47370081005658 217.56645045387054,25.642568899619675" style="fill:rgb(152,10,14);stroke-width=0"/>
<polygon points="0.9999999999998863,106.0000000000004 47.999999999999886,121.00000000000037 76.99999999999989,235.0000000000003" style="fill:rgb(152,10,14);stroke-width=0"/>
<polygon points="543.0,589.0 404.0,557.0 641.0,569.0" style="fill:rgb(253,168,176);stroke-width=0"/>
<polygon points="296.7624099467641,605.4701294725885 221.10198435980348,484.5548698896889 380.20101012677674,660.6244584051392" style="fill:rgb(253,168,176);stroke-width=0"/>
<polygon points="94.5298705274115,196.76240994676408 215.44513011031108,121.10198435980348 39.375541594860806,280.20101012677674" style="fill:rgb(253,168,176);stroke-width=0"/>
<polygon points="689.0,157.0 657.0,295.99999999999994 668.9999999999999,58.99999999999994" style="fill:rgb(253,168,176);stroke-width=0"/>
<polygon points="111.0,443.0 143.0,304.0000000000001 131.00000000000017,541.0000000000001" style="fill:rgb(253,168,176);stroke-width=0"/>
<polygon points="705.4701294725886,403.23759005323586 584.554869889689,478.89801564019643 760.6244584051392,319.79898987322304" style="fill:rgb(253,168,176);stroke-width=0"/>
<polygon points="503.2375900532358,-5.47012947258861 578.8980156401964,115.44513011031094 419.798989873223,-60.624458405139194" style="fill:rgb(253,168,176);stroke-width=0"/>
<polygon points="256.9999999999998,11.000000000000057 395.9999999999997,43.0 158.99999999999972,31.00000000000034" style="fill:rgb(253,168,176);stroke-width=0"/>
<polygon points="494.0,443.0 708.0,467.0 541.0,445.0" style="fill:rgb(131,226,148);stroke-width=0"/>
<polygon points="365.3517677218592,467.58430714121175 499.7020561473032,635.8757210636101 397.17157287525384,502.2325394193526" style="fill:rgb(131,226,148);stroke-width=0"/>
<polygon points="232.41569285878825,265.3517677218592 64.12427893638994,399.7020561473032 197.76746058064742,297.17157287525384" style="fill:rgb(131,226,148);stroke-width=0"/>
<polygon points="543.0,206.0 567.0,-8.0 545.0,158.99999999999997" style="fill:rgb(131,226,148);stroke-width=0"/>
<polygon points="257.0,394.0 233.00000000000003,608.0 255.00000000000003,441.00000000000006" style="fill:rgb(131,226,148);stroke-width=0"/>
<polygon points="567.5843071412118,334.6482322781408 735.8757210636101,200.29794385269673 602.2325394193526,302.8284271247461" style="fill:rgb(131,226,148);stroke-width=0"/>
<polygon points="434.64823227814077,132.41569285878825 300.2979438526967,-35.87572106361006 402.82842712474604,97.76746058064737" style="fill:rgb(131,226,148);stroke-width=0"/>
<polygon points="305.99999999999994,157.00000000000009 91.99999999999989,133.00000000000017 258.99999999999983,155.0000000000001" style="fill:rgb(131,226,148);stroke-width=0"/>
<polygon points="618.0,434.0 720.0,394.0 504.0,422.0" style="fill:rgb(190,72,8);stroke-width=0"/>
<polygon points="459.39696961967,548.9015869776647 559.8061325481598,592.7422074112307 387.27207793864216,459.8061325481597" style="fill:rgb(190,72,8);stroke-width=0"/>
<polygon points="151.0984130223353,359.39696961967 107.25779258876935,459.8061325481598 240.19386745184028,287.27207793864216" style="fill:rgb(190,72,8);stroke-width=0"/>
<polygon points="534.0,82.0 493.99999999999994,-20.0 522.0,196.0" style="fill:rgb(190,72,8);stroke-width=0"/>
<polygon points="266.0,518.0 306.0000000000001,620.0 278.0,404.0" style="fill:rgb(190,72,8);stroke-width=0"/>
<polygon points="648.9015869776647,240.60303038032998 692.7422074112305,140.1938674518401 559.8061325481598,312.72792206135784" style="fill:rgb(190,72,8);stroke-width=0"/>
<polygon points="340.6030303803299,51.09841302233531 240.19386745184005,7.257792588769519 412.7279220613578,140.19386745184022" style="fill:rgb(190,72,8);stroke-width=0"/>
<polygon points="181.99999999999994,166.0000000000001 79.99999999999994,206.00000000000037 295.9999999999999,178.00000000000006" style="fill:rgb(190,72,8);stroke-width=0"/>
<polygon points="414.0,430.0 537.0,369.0 796.0,390.0" style="fill:rgb(228,227,194);stroke-width=0"/>
<polygon points="317.9756133823605,401.82337649086287 448.0832611206852,445.6639969244288 616.3746750430836,643.6538956566621" style="fill:rgb(228,227,194);stroke-width=0"/>
<polygon points="298.17662350913713,217.9756133823605 254.33600307557123,348.0832611206852 56.346104343337856,516.3746750430836" style="fill:rgb(228,227,194);stroke-width=0"/>
<polygon points="530.0,285.99999999999994 469.0,163.0 490.0,-96.00000000000011" style="fill:rgb(228,227,194);stroke-width=0"/>
<polygon points="270.0,314.00000000000006 331.0,437.0 310.00000000000006,696.0000000000001" style="fill:rgb(228,227,194);stroke-width=0"/>
<polygon points="501.82337649086287,382.0243866176395 545.6639969244288,251.91673887931475 743.6538956566621,83.62532495691624" style="fill:rgb(228,227,194);stroke-width=0"/>
<polygon points="482.0243866176395,198.17662350913713 351.9167388793147,154.33600307557117 183.6253249569162,-43.65389565666209" style="fill:rgb(228,227,194);stroke-width=0"/>
<polygon points="385.99999999999994,170.0 262.9999999999999,231.00000000000006 3.9999999999997726,210.00000000000028" style="fill:rgb(228,227,194);stroke-width=0"/>
<polygon points="728.0,556.0 591.0,572.0 735.0,443.0" style="fill:rgb(199,89,178);stroke-width=0"/>
<polygon points="450.9116882454315,712.9503602129437 342.72435072388964,627.3904396893715 535.7645019878171,637.9970414071697" style="fill:rgb(199,89,178);stroke-width=0"/>
<polygon points="-12.950360212943679,350.9116882454315 72.60956031062847,242.72435072388967 62.00295859283028,435.7645019878171" style="fill:rgb(199,89,178);stroke-width=0"/>
<polygon points="655.9999999999999,-28.0 672.0,108.99999999999994 543.0,-35.0" style="fill:rgb(199,89,178);stroke-width=0"/>
<polygon points="144.00000000000014,628.0 128.0,491.0000000000001 257.0,635.0" style="fill:rgb(199,89,178);stroke-width=0"/>
<polygon points="812.9503602129437,249.0883117545684 727.3904396893716,357.27564927611024 737.9970414071697,164.2354980121828" style="fill:rgb(199,89,178);stroke-width=0"/>
<polygon points="349.08831175456834,-112.95036021294368 457.2756492761102,-27.390439689371647 264.23549801218275,-37.99704140716972" style="fill:rgb(199,89,178);stroke-width=0"/>
<polygon points="71.99999999999983,44.000000000000284 208.99999999999972,28.000000000000057 64.99999999999989,157.00000000000017" style="fill:rgb(199,89,178);stroke-width=0"/>
<polygon points="442.0,600.0 432.0,560.0 532.0,547.0" style="fill:rgb(247,90,247);stroke-width=0"/>
<polygon points="217.56645045387077,541.8305191657993 238.7796538894672,506.4751801064719 318.68272016354706,567.9934700697015" style="fill:rgb(247,90,247);stroke-width=0"/>
<polygon points="158.16948083420073,117.5664504538708 193.5248198935281,138.7796538894672 132.00652993029848,218.68272016354706" style="fill:rgb(247,90,247);stroke-width=0"/>
<polygon points="700.0,257.9999999999999 660.0,267.99999999999994 647.0,167.99999999999994" style="fill:rgb(247,90,247);stroke-width=0"/>
<polygon points="100.0,342.00000000000017 140.0,332.0000000000001 153.00000000000003,432.0000000000001" style="fill:rgb(247,90,247);stroke-width=0"/>
<polygon points="641.8305191657994,482.43354954612914 606.475180106472,461.2203461105327 667.9934700697016,381.3172798364528" style="fill:rgb(247,90,247);stroke-width=0"/>
<polygon points="582.4335495461291,58.169480834200584 561.2203461105327,93.52481989352802 481.31727983645277,32.00652993029837" style="fill:rgb(247,90,247);stroke-width=0"/>
<polygon points="357.9999999999998,0.0 367.9999999999997,40.00000000000006 267.9999999999998,53.000000000000114" style="fill:rgb(247,90,247);stroke-width=0"/>
<polygon points="710.0,594.0 406.0,574.0 409.0,394.0" style="fill:rgb(136,106,117);stroke-width=0"/>
<polygon points="411.3137084989848,727.0924958366747 210.4953826420053,497.9898987322333 339.8959235991435,372.8319984622144" style="fill:rgb(136,106,117);stroke-width=0"/>
<polygon points="-27.092495836674743,311.3137084989848 202.0101012677667,110.4953826420053 327.1680015377856,239.8959235991435" style="fill:rgb(136,106,117);stroke-width=0"/>
<polygon points="694.0,-10.000000000000057 674.0,293.99999999999994 494.0,290.99999999999994" style="fill:rgb(136,106,117);stroke-width=0"/>
<polygon points="106.00000000000006,610.0000000000001 126.0,306.0000000000001 306.0,309.00000000000006" style="fill:rgb(136,106,117);stroke-width=0"/>
<polygon points="827.0924958366747,288.68629150101503 597.9898987322334,489.5046173579946 472.8319984622144,360.1040764008565" style="fill:rgb(136,106,117);stroke-width=0"/>
<polygon points="388.686291501015,-127.09249583667474 589.5046173579946,102.01010126776654 460.1040764008565,227.16800153778559" style="fill:rgb(136,106,117);stroke-width=0"/>
<polygon points="89.99999999999972,6.000000000000227 393.99999999999966,26.0 390.99999999999994,206.0" style="fill:rgb(136,106,117);stroke-width=0"/>
</svg>
