<svg width="800.0" height="600.0">
<polygon points="635.0,584.0 755.0,577.0 563.0,331.0" style="fill:rgb(171,237,69);stroke-width=0"/>
<polygon points="365.35176772185923,666.9884194358182 455.1543289325507,746.891485709898 493.3380951166243,437.1787155501902" style="fill:rgb(171,237,69);stroke-width=0"/>
<polygon points="33.01158056418183,265.35176772185923 -46.89148570989801,355.1543289325507 262.8212844498098,393.3380951166243" style="fill:rgb(171,237,69);stroke-width=0"/>
<polygon points="684.0,64.99999999999994 677.0,-55.0 430.99999999999994,137.0" style="fill:rgb(171,237,69);stroke-width=0"/>
<polygon points="116.00000000000006,535.0000000000001 123.00000000000006,655.0 369.00000000000006,463.0" style="fill:rgb(171,237,69);stroke-width=0"/>
<polygon points="766.9884194358183,334.64823227814065 846.891485709898,244.84567106744916 537.1787155501902,206.66190488337566" style="fill:rgb(171,237,69);stroke-width=0"/>
<polygon points="434.6482322781406,-66.98841943581829 344.8456710674491,-146.891485709898 306.66190488337566,162.82128444980984" style="fill:rgb(171,237,69);stroke-width=0"/>
<polygon points="164.99999999999966,16.00000000000017 44.99999999999977,23.000000000000284 237.0,269.0000000000001" style="fill:rgb(171,237,69);stroke-width=0"/>
<polygon points="606.0,439.0 745.0,333.0 710.0,433.0" style="fill:rgb(92,107,6);stroke-width=0"/>
<polygon points="447.3761543394987,543.9518395093589 620.6173157302028,567.286363288515 525.1579002700189,613.2483040656405" style="fill:rgb(92,107,6);stroke-width=0"/>
<polygon points="156.04816049064107,347.3761543394987 132.71363671148504,520.6173157302028 86.75169593435953,425.1579002700189" style="fill:rgb(92,107,6);stroke-width=0"/>
<polygon points="539.0,93.99999999999994 433.0,-45.0 532.9999999999999,-9.999999999999943" style="fill:rgb(92,107,6);stroke-width=0"/>
<polygon points="261.0,506.0000000000001 367.00000000000006,645.0 267.0000000000001,610.0" style="fill:rgb(92,107,6);stroke-width=0"/>
<polygon points="643.9518395093589,252.6238456605012 667.2863632885148,79.38268426979707 713.2483040656405,174.84209972998096" style="fill:rgb(92,107,6);stroke-width=0"/>
<polygon points="352.62384566050116,56.04816049064107 179.382684269797,32.71363671148521 274.8420997299809,-13.248304065640468" style="fill:rgb(92,107,6);stroke-width=0"/>
<polygon points="193.99999999999983,161.00000000000014 55.0,267.00000000000034 89.99999999999989,167.00000000000028" style="fill:rgb(92,107,6);stroke-width=0"/>
<polygon points="539.0,365.0 739.0,545.0 541.0,375.0" style="fill:rgb(230,219,206);stroke-width=0"/>
<polygon points="452.32590180780454,444.2497833620557 466.4680374315355,712.9503602129437 446.6690475583122,452.73506473629425" style="fill:rgb(230,219,206);stroke-width=0"/>
<polygon points="255.75021663794428,352.32590180780454 -12.950360212943679,366.46803743153555 247.26493526370575,346.6690475583122" style="fill:rgb(230,219,206);stroke-width=0"/>
<polygon points="465.0,160.99999999999994 644.9999999999999,-39.0 474.99999999999994,158.99999999999997" style="fill:rgb(230,219,206);stroke-width=0"/>
<polygon points="335.0,439.00000000000006 155.00000000000014,639.0 325.00000000000006,441.0" style="fill:rgb(230,219,206);stroke-width=0"/>
<polygon points="544.2497833620557,247.6740981921954 812.9503602129437,233.53196256846437 552.7350647362942,253.3309524416878" style="fill:rgb(230,219,206);stroke-width=0"/>
<polygon points="347.6740981921954,155.75021663794428 333.5319625684643,-112.95036021294368 353.33095244168777,147.26493526370575" style="fill:rgb(230,219,206);stroke-width=0"/>
<polygon points="260.9999999999999,235.00000000000006 60.99999999999983,55.00000000000031 258.99999999999994,225.0000000000001" style="fill:rgb(230,219,206);stroke-width=0"/>
<polygon points="690.0,407.0 460.0,440.0 541.0,333.0" style="fill:rgb(227,99,13);stroke-width=0"/>
<polygon points="529.4005409571382,580.7213921310594 343.4314575050762,441.4213562373095 476.3675323681472,423.03657992645924" style="fill:rgb(227,99,13);stroke-width=0"/>
<polygon points="119.27860786894064,429.4005409571382 258.5786437626905,243.4314575050762 276.96342007354076,376.3675323681472" style="fill:rgb(227,99,13);stroke-width=0"/>
<polygon points="506.99999999999994,10.0 540.0,240.0 432.99999999999994,159.0" style="fill:rgb(227,99,13);stroke-width=0"/>
<polygon points="293.0000000000001,590.0 260.0,360.0 367.00000000000006,441.0" style="fill:rgb(227,99,13);stroke-width=0"/>
<polygon points="680.7213921310592,170.59945904286167 541.4213562373095,356.5685424949238 523.0365799264592,223.63246763185282" style="fill:rgb(227,99,13);stroke-width=0"/>
<polygon points="270.5994590428616,19.278607868940753 456.5685424949238,158.5786437626905 323.6324676318528,176.96342007354076" style="fill:rgb(227,99,13);stroke-width=0"/>
<polygon points="109.99999999999989,193.00000000000028 339.99999999999994,160.0 259.0,267.0000000000001" style="fill:rgb(227,99,13);stroke-width=0"/>
<polygon points="760.0,574.0 794.0,592.0 469.0,496.0" style="fill:rgb(79,170,157);stroke-width=0"/>
<polygon points="460.8111831820431,748.3056992722711 472.12489168102786,785.0752518939717 310.1974387893085,487.38329701443513" style="fill:rgb(79,170,157);stroke-width=0"/>
<polygon points="-48.30569927227111,360.8111831820431 -85.07525189397165,372.12489168102786 212.61670298556487,210.19743878930848" style="fill:rgb(79,170,157);stroke-width=0"/>
<polygon points="673.9999999999999,-60.0 692.0,-94.00000000000006 596.0,230.99999999999994" style="fill:rgb(79,170,157);stroke-width=0"/>
<polygon points="126.00000000000017,660.0 108.00000000000006,694.0000000000001 204.0,369.0000000000001" style="fill:rgb(79,170,157);stroke-width=0"/>
<polygon points="848.305699272271,239.1888168179567 885.0752518939717,227.87510831897194 587.3832970144352,389.80256121069147" style="fill:rgb(79,170,157);stroke-width=0"/>
<polygon points="339.18881681795665,-148.305699272271 327.87510831897185,-185.07525189397165 489.80256121069147,112.61670298556473" style="fill:rgb(79,170,157);stroke-width=0"/>
<polygon points="39.99999999999983,26.00000000000034 5.999999999999659,8.000000000000284 330.9999999999998,103.99999999999994" style="fill:rgb(79,170,157);stroke-width=0"/>
<polygon points="789.0,528.0 673.0,446.0 661.0,468.0" style="fill:rgb(232,11,1);stroke-width=0"/>
<polygon points="513.8441917710342,736.2848839920998 489.8025612106916,596.2777413171634 465.76093065034894,603.348809129029" style="fill:rgb(232,11,1);stroke-width=0"/>
<polygon points="-36.28488399209982,413.84419177103416 103.72225868283658,389.8025612106916 96.65119087097105,365.76093065034894" style="fill:rgb(232,11,1);stroke-width=0"/>
<polygon points="628.0,-89.0 546.0,26.999999999999943 568.0,38.99999999999994" style="fill:rgb(232,11,1);stroke-width=0"/>
<polygon points="172.00000000000006,689.0 254.00000000000003,573.0 232.00000000000003,561.0" style="fill:rgb(232,11,1);stroke-width=0"/>
<polygon points="836.2848839920998,186.15580822896572 696.2777413171634,210.19743878930836 703.348809129029,234.239069349651" style="fill:rgb(232,11,1);stroke-width=0"/>
<polygon points="286.1558082289656,-136.28488399209982 310.1974387893083,3.722258682836582 334.23906934965095,-3.3488091290289503" style="fill:rgb(232,11,1);stroke-width=0"/>
<polygon points="10.999999999999773,72.00000000000023 126.99999999999983,154.00000000000017 138.99999999999983,132.0000000000001" style="fill:rgb(232,11,1);stroke-width=0"/>
<polygon points="438.0,321.0 575.0,489.0 439.0,584.0" style="fill:rgb(210,47,251);stroke-width=0"/>
<polygon points="412.0208152801713,341.7193000900063 390.10050506338837,557.3868683519033 226.75883860929588,528.3954903232549" style="fill:rgb(210,47,251);stroke-width=0"/>
<polygon points="358.2806999099937,312.0208152801713 142.61313164809667,290.10050506338837 171.60450967674512,126.75883860929588" style="fill:rgb(210,47,251);stroke-width=0"/>
<polygon points="421.0,262.0 589.0,124.99999999999994 684.0,260.99999999999994" style="fill:rgb(210,47,251);stroke-width=0"/>
<polygon points="379.0,338.0 211.00000000000003,475.0000000000001 116.0,339.0000000000001" style="fill:rgb(210,47,251);stroke-width=0"/>
<polygon points="441.7193000900063,287.9791847198287 657.3868683519033,309.8994949366115 628.395490323255,473.24116139070406" style="fill:rgb(210,47,251);stroke-width=0"/>
<polygon points="387.9791847198287,258.2806999099937 409.89949493661146,42.61313164809667 573.2411613907041,71.60450967674498" style="fill:rgb(210,47,251);stroke-width=0"/>
<polygon points="362.0,279.0 224.9999999999998,111.00000000000017 360.9999999999998,15.999999999999943" style="fill:rgb(210,47,251);stroke-width=0"/>
<polygon points="777.0,327.0 561.0,436.0 514.0,359.0" style="fill:rgb(93,68,168);stroke-width=0"/>
<polygon points="647.4873734152916,585.6711395993652 417.6776695296637,510.0107140124046 438.89087296526014,422.3294731452727" style="fill:rgb(93,68,168);stroke-width=0"/>
<polygon points="114.32886040063477,547.4873734152916 189.9892859875954,317.6776695296637 277.6705268547273,338.89087296526014" style="fill:rgb(93,68,168);stroke-width=0"/>
<polygon points="427.0,-77.0 536.0,138.99999999999997 458.99999999999994,186.0" style="fill:rgb(93,68,168);stroke-width=0"/>
<polygon points="373.00000000000006,677.0 264.0,461.00000000000006 341.00000000000006,414.0" style="fill:rgb(93,68,168);stroke-width=0"/>
<polygon points="685.6711395993652,52.51262658470827 610.0107140124046,282.3223304703362 522.3294731452727,261.1091270347398" style="fill:rgb(93,68,168);stroke-width=0"/>
<polygon points="152.51262658470822,14.328860400634824 382.32233047033617,89.9892859875954 361.1091270347398,177.6705268547273" style="fill:rgb(93,68,168);stroke-width=0"/>
<polygon points="22.999999999999886,273.0000000000002 238.9999999999999,164.00000000000017 285.99999999999994,241.0000000000001" style="fill:rgb(93,68,168);stroke-width=0"/>
<polygon points="738.0,539.0 800.0,599.0 451.0,443.0" style="fill:rgb(39,131,124);stroke-width=0"/>
<polygon points="470.00357133746826,708.0006127446379 471.4177848998413,794.2676400493967 334.94617613083767,437.1787155501902" style="fill:rgb(39,131,124);stroke-width=0"/>
<polygon points="-8.00061274463792,370.0035713374683 -94.26764004939673,371.4177848998413 262.8212844498098,234.94617613083767" style="fill:rgb(39,131,124);stroke-width=0"/>
<polygon points="638.9999999999999,-38.00000000000006 699.0,-100.00000000000006 543.0,248.99999999999997" style="fill:rgb(39,131,124);stroke-width=0"/>
<polygon points="161.00000000000014,638.0000000000001 101.00000000000006,700.0000000000001 257.0,351.00000000000006" style="fill:rgb(39,131,124);stroke-width=0"/>
<polygon points="808.0006127446379,229.99642866253154 894.2676400493967,228.58221510015852 537.1787155501903,365.05382386916233" style="fill:rgb(39,131,124);stroke-width=0"/>
<polygon points="329.99642866253146,-108.00061274463792 328.58221510015846,-194.26764004939673 465.05382386916233,162.8212844498097" style="fill:rgb(39,131,124);stroke-width=0"/>
<polygon points="61.999999999999716,61.00000000000031 -2.8421709430404007e-13,1.0000000000002274 348.9999999999999,156.99999999999997" style="fill:rgb(39,131,124);stroke-width=0"/>
<polygon points="570.0,319.0 793.0,306.0 790.0,341.0" style="fill:rgb(204,213,162);stroke-width=0"/>
<polygon points="506.7731239591687,433.6431816442575 673.6503243191939,582.1356056934324 646.7802666341051,604.7630226914019" style="fill:rgb(204,213,162);stroke-width=0"/>
<polygon points="266.3568183557425,406.7731239591687 117.86439430656765,573.6503243191939 95.23697730859806,546.7802666341051" style="fill:rgb(204,213,162);stroke-width=0"/>
<polygon points="419.0,130.0 405.9999999999999,-93.0 440.9999999999999,-90.0" style="fill:rgb(204,213,162);stroke-width=0"/>
<polygon points="381.0,470.0 394.00000000000017,693.0 359.00000000000017,690.0" style="fill:rgb(204,213,162);stroke-width=0"/>
<polygon points="533.6431816442575,193.22687604083129 682.1356056934324,26.349675680805888 704.7630226914018,53.21973336589471" style="fill:rgb(204,213,162);stroke-width=0"/>
<polygon points="293.22687604083126,166.3568183557425 126.34967568080583,17.864394306567704 153.21973336589465,-4.763022691401773" style="fill:rgb(204,213,162);stroke-width=0"/>
<polygon points="229.99999999999994,281.00000000000006 6.999999999999943,294.0000000000004 10.0,259.00000000000045" style="fill:rgb(204,213,162);stroke-width=0"/>
<polygon points="442.0,409.0 434.0,411.0 779.0,597.0" style="fill:rgb(116,134,248);stroke-width=0"/>
<polygon points="352.62384566050133,406.7731239591687 345.55277784863586,402.5304832720494 457.9827560572969,778.0041840821061" style="fill:rgb(116,134,248);stroke-width=0"/>
<polygon points="293.2268760408313,252.62384566050133 297.4695167279506,245.55277784863586 -78.00418408210612,357.9827560572969" style="fill:rgb(116,134,248);stroke-width=0"/>
<polygon points="509.0,258.0 511.0,265.99999999999994 697.0,-79.0" style="fill:rgb(116,134,248);stroke-width=0"/>
<polygon points="291.0,342.0 289.0,334.00000000000006 103.00000000000006,679.0" style="fill:rgb(116,134,248);stroke-width=0"/>
<polygon points="506.7731239591687,347.37615433949867 502.5304832720494,354.4472221513641 878.0041840821061,242.01724394270298" style="fill:rgb(116,134,248);stroke-width=0"/>
<polygon points="447.37615433949867,193.2268760408313 454.4472221513641,197.46951672795058 342.01724394270286,-178.00418408210612" style="fill:rgb(116,134,248);stroke-width=0"/>
<polygon points="357.99999999999994,191.0 365.9999999999999,189.00000000000006 20.999999999999773,3.000000000000284" style="fill:rgb(116,134,248);stroke-width=0"/>
<polygon points="413.0,558.0 605.0,318.0 529.0,566.0" style="fill:rgb(249,18,230);stroke-width=0"/>
<polygon points="226.75883860929585,491.6259377015544 532.2289680818844,457.68481220460006 303.126370977443,579.3071785686863" style="fill:rgb(249,18,230);stroke-width=0"/>
<polygon points="208.3740622984456,126.75883860929585 242.31518779539994,432.22896808188443 120.69282143131375,203.126370977443" style="fill:rgb(249,18,230);stroke-width=0"/>
<polygon points="658.0,287.0 417.99999999999994,95.0 666.0,171.0" style="fill:rgb(249,18,230);stroke-width=0"/>
<polygon points="142.0,313.00000000000006 382.00000000000006,505.0 134.0,429.0" style="fill:rgb(249,18,230);stroke-width=0"/>
<polygon points="591.6259377015544,473.24116139070406 557.6848122046,167.77103191811554 679.3071785686864,396.873629022557" style="fill:rgb(249,18,230);stroke-width=0"/>
<polygon points="573.2411613907041,108.37406229844552 267.7710319181155,142.31518779540002 496.87362902255694,20.692821431313632" style="fill:rgb(249,18,230);stroke-width=0"/>
<polygon points="386.9999999999998,42.0 195.0,282.0000000000002 270.99999999999983,34.0" style="fill:rgb(249,18,230);stroke-width=0"/>
<polygon points="504.0,550.0 486.0,313.0 412.0,326.0" style="fill:rgb(123,52,152);stroke-width=0"/>
<polygon points="296.7624099467641,550.3158005400378 451.618795026618,370.0035713374682 390.1005050633883,326.8700576850888" style="fill:rgb(123,52,152);stroke-width=0"/>
<polygon points="149.6841994599622,196.76240994676408 329.9964286625318,351.618795026618 373.1299423149112,290.1005050633883" style="fill:rgb(123,52,152);stroke-width=0"/>
<polygon points="650.0,196.0 413.0,214.0 426.0,288.0" style="fill:rgb(123,52,152);stroke-width=0"/>
<polygon points="150.0,404.0 387.0,386.0 374.0,312.0" style="fill:rgb(123,52,152);stroke-width=0"/>
<polygon points="650.3158005400378,403.2375900532359 470.0035713374682,248.381204973382 426.8700576850888,309.8994949366117" style="fill:rgb(123,52,152);stroke-width=0"/>
<polygon points="503.23759005323586,49.68419945996217 348.381204973382,229.9964286625318 409.8994949366117,273.1299423149112" style="fill:rgb(123,52,152);stroke-width=0"/>
<polygon points="295.9999999999999,50.00000000000006 314.0,287.00000000000006 388.0,274.0" style="fill:rgb(123,52,152);stroke-width=0"/>
<polygon points="641.0,543.0 426.0,369.0 424.0,576.0" style="fill:rgb(185,13,212);stroke-width=0"/>
<polygon points="398.5857864376269,642.239682094289 369.59440840897844,367.175144212722 221.80909114099003,512.1320343559643" style="fill:rgb(185,13,212);stroke-width=0"/>
<polygon points="57.76031790571096,298.5857864376269 332.824855787278,269.59440840897844 187.86796564403573,121.80909114099003" style="fill:rgb(185,13,212);stroke-width=0"/>
<polygon points="643.0,58.99999999999997 469.0,274.0 676.0,275.99999999999994" style="fill:rgb(185,13,212);stroke-width=0"/>
<polygon points="157.00000000000003,541.0 331.0,326.0 124.0,324.0000000000001" style="fill:rgb(185,13,212);stroke-width=0"/>
<polygon points="742.239682094289,301.414213562373 467.175144212722,330.40559159102156 612.1320343559644,478.1909088590099" style="fill:rgb(185,13,212);stroke-width=0"/>
<polygon points="401.41421356237294,-42.23968209428904 430.40559159102156,232.824855787278 578.1909088590098,87.86796564403559" style="fill:rgb(185,13,212);stroke-width=0"/>
<polygon points="158.9999999999998,57.00000000000014 374.0,231.0 375.9999999999997,24.0" style="fill:rgb(185,13,212);stroke-width=0"/>
<polygon points="778.0,404.0 407.0,333.0 754.0,358.0" style="fill:rgb(129,34,56);stroke-width=0"/>
<polygon points="593.747258045114,640.8254685319159 381.6152236891498,328.2842712474619 609.303607231218,591.3279938488575" style="fill:rgb(129,34,56);stroke-width=0"/>
<polygon points="59.17453146808407,493.747258045114 371.7157287525381,281.6152236891498 108.67200615114245,509.30360723121805" style="fill:rgb(129,34,56);stroke-width=0"/>
<polygon points="504.0,-78.0 433.0,293.0 457.99999999999994,-54.0" style="fill:rgb(129,34,56);stroke-width=0"/>
<polygon points="296.00000000000006,678.0 367.0,307.0 342.0000000000001,654.0" style="fill:rgb(129,34,56);stroke-width=0"/>
<polygon points="740.8254685319159,106.25274195488589 428.2842712474619,318.3847763108502 691.3279938488574,90.69639276878178" style="fill:rgb(129,34,56);stroke-width=0"/>
<polygon points="206.25274195488583,-40.825468531915874 418.3847763108502,271.7157287525381 190.69639276878172,8.672006151142625" style="fill:rgb(129,34,56);stroke-width=0"/>
<polygon points="21.999999999999886,196.00000000000023 393.0,267.0 46.0,242.00000000000037" style="fill:rgb(129,34,56);stroke-width=0"/>
<polygon points="559.0,363.0 608.0,595.0 476.0,433.0" style="fill:rgb(223,204,213);stroke-width=0"/>
<polygon points="467.88225099390854,456.97770542341357 338.48171003677044,655.6747109368334 359.6949134723668,447.78531726798843" style="fill:rgb(223,204,213);stroke-width=0"/>
<polygon points="243.02229457658643,367.88225099390854 44.325289063166565,238.48171003677047 252.21468273201157,259.6949134723668" style="fill:rgb(223,204,213);stroke-width=0"/>
<polygon points="463.0,141.0 695.0,91.99999999999989 533.0,224.0" style="fill:rgb(223,204,213);stroke-width=0"/>
<polygon points="337.0,459.0 105.0,508.0000000000001 267.0,376.0" style="fill:rgb(223,204,213);stroke-width=0"/>
<polygon points="556.9777054234136,232.1177490060914 755.6747109368335,361.5182899632295 547.7853172679884,340.3050865276332" style="fill:rgb(223,204,213);stroke-width=0"/>
<polygon points="332.11774900609134,143.02229457658643 461.51828996322945,-55.67471093683355 440.3050865276332,152.21468273201162" style="fill:rgb(223,204,213);stroke-width=0"/>
<polygon points="240.9999999999999,237.00000000000009 191.9999999999997,5.000000000000114 324.0,167.00000000000009" style="fill:rgb(223,204,213);stroke-width=0"/>
<polygon points="489.0,401.0 446.0,391.0 680.0,399.0" style="fill:rgb(22,147,10);stroke-width=0"/>
<polygon points="391.5147186257614,434.35028842544403 368.1801948466054,396.873629022557 527.9863273947651,567.9934700697015" style="fill:rgb(22,147,10);stroke-width=0"/>
<polygon points="265.64971157455597,291.5147186257614 303.126370977443,268.1801948466054 132.00652993029848,427.9863273947651" style="fill:rgb(22,147,10);stroke-width=0"/>
<polygon points="501.0,211.0 491.0,253.99999999999997 499.0,20.0" style="fill:rgb(22,147,10);stroke-width=0"/>
<polygon points="299.0,389.0 309.0,346.00000000000006 301.0,580.0" style="fill:rgb(22,147,10);stroke-width=0"/>
<polygon points="534.350288425444,308.4852813742385 496.87362902255705,331.81980515339455 667.9934700697015,172.01367260523486" style="fill:rgb(22,147,10);stroke-width=0"/>
<polygon points="408.4852813742385,165.64971157455602 431.81980515339455,203.12637097744295 272.01367260523483,32.006529930298484" style="fill:rgb(22,147,10);stroke-width=0"/>
<polygon points="311.0,199.00000000000009 353.9999999999999,209.00000000000006 119.99999999999989,201.0000000000001" style="fill:rgb(22,147,10);stroke-width=0"/>
<polygon points="769.0,353.0 619.0,572.0 779.0,545.0" style="fill:rgb(64,1,246);stroke-width=0"/>
<polygon points="623.445742854949,598.3990616607231 362.523340597113,647.1894295625948 494.7523086789974,741.2346314604057" style="fill:rgb(64,1,246);stroke-width=0"/>
<polygon points="101.60093833927692,523.445742854949 52.810570437405204,262.523340597113 -41.234631460405694,394.75230867899745" style="fill:rgb(64,1,246);stroke-width=0"/>
<polygon points="453.0,-69.0 672.0,80.99999999999997 645.0,-79.00000000000011" style="fill:rgb(64,1,246);stroke-width=0"/>
<polygon points="347.00000000000006,669.0 128.0,519.0 155.00000000000006,679.0000000000002" style="fill:rgb(64,1,246);stroke-width=0"/>
<polygon points="698.399061660723,76.55425714505088 747.1894295625949,337.476659402887 841.2346314604058,205.24769132100235" style="fill:rgb(64,1,246);stroke-width=0"/>
<polygon points="176.55425714505083,1.6009383392770928 437.4766594028869,-47.18942956259491 305.24769132100226,-141.2346314604058" style="fill:rgb(64,1,246);stroke-width=0"/>
<polygon points="31.0,247.0000000000003 180.9999999999998,28.000000000000057 20.999999999999602,55.00000000000023" style="fill:rgb(64,1,246);stroke-width=0"/>
<polygon points="538.0,563.0 687.0,424.0 708.0,536.0" style="fill:rgb(28,233,186);stroke-width=0"/>
<polygon points="311.6116523516816,583.5498192558056 515.2584053334073,590.620887067671 450.9116882454315,684.6660889654818" style="fill:rgb(28,233,186);stroke-width=0"/>
<polygon points="116.45018074419443,211.61165235168158 109.37911293232901,415.25840533340727 15.333911034518223,350.9116882454315" style="fill:rgb(28,233,186);stroke-width=0"/>
<polygon points="663.0,161.99999999999994 523.9999999999999,13.0 635.9999999999999,-8.0" style="fill:rgb(28,233,186);stroke-width=0"/>
<polygon points="137.0,438.0000000000001 276.0000000000001,587.0 164.00000000000014,608.0" style="fill:rgb(28,233,186);stroke-width=0"/>
<polygon points="683.5498192558057,388.38834764831836 690.620887067671,184.74159466659262 784.6660889654818,249.08831175456842" style="fill:rgb(28,233,186);stroke-width=0"/>
<polygon points="488.3883476483183,16.450180744194313 284.74159466659256,9.379112932329008 349.08831175456834,-84.66608896548178" style="fill:rgb(28,233,186);stroke-width=0"/>
<polygon points="261.9999999999998,37.00000000000006 112.99999999999989,176.00000000000023 91.99999999999983,64.00000000000028" style="fill:rgb(28,233,186);stroke-width=0"/>
<polygon points="628.0,350.0 752.0,549.0 439.0,395.0" style="fill:rgb(87,145,226);stroke-width=0"/>
<polygon points="525.8650070512055,496.5756851698602 472.8319984622144,724.971175493115 360.40202025355336,394.75230867899734" style="fill:rgb(87,145,226);stroke-width=0"/>
<polygon points="203.4243148301398,425.86500705120545 -24.97117549311497,372.8319984622144 305.24769132100266,260.40202025355336" style="fill:rgb(87,145,226);stroke-width=0"/>
<polygon points="450.0,72.0 648.9999999999999,-51.99999999999994 494.99999999999994,261.0" style="fill:rgb(87,145,226);stroke-width=0"/>
<polygon points="350.0,528.0 151.00000000000017,652.0 305.00000000000006,339.0" style="fill:rgb(87,145,226);stroke-width=0"/>
<polygon points="596.5756851698602,174.13499294879452 824.971175493115,227.16800153778541 494.75230867899734,339.59797974644664" style="fill:rgb(87,145,226);stroke-width=0"/>
<polygon points="274.1349929487945,103.42431483013982 327.16800153778536,-124.97117549311497 439.59797974644664,205.24769132100266" style="fill:rgb(87,145,226);stroke-width=0"/>
<polygon points="172.0,250.0000000000001 47.99999999999983,51.000000000000284 361.0,205.00000000000006" style="fill:rgb(87,145,226);stroke-width=0"/>
<polygon points="594.0,555.0 551.0,436.0 549.0,475.0" style="fill:rgb(111,235,116);stroke-width=0"/>
<polygon points="356.8664863476206,617.4909447527598 410.60660171779824,502.93964620053913 381.6152236891498,529.1025971044414" style="fill:rgb(111,235,116);stroke-width=0"/>
<polygon points="82.50905524724021,256.8664863476206 197.06035379946087,310.60660171779824 170.89740289555857,281.6152236891498" style="fill:rgb(111,235,116);stroke-width=0"/>
<polygon points="655.0,106.00000000000003 536.0,148.99999999999997 575.0,150.99999999999994" style="fill:rgb(111,235,116);stroke-width=0"/>
<polygon points="145.00000000000003,494.0 264.0,451.00000000000006 225.00000000000003,449.0000000000001" style="fill:rgb(111,235,116);stroke-width=0"/>
<polygon points="717.4909447527598,343.1335136523793 602.9396462005392,289.3933982822017 629.1025971044414,318.3847763108501" style="fill:rgb(111,235,116);stroke-width=0"/>
<polygon points="443.13351365237924,-17.490944752759788 389.39339828220164,97.06035379946081 418.38477631085004,70.89740289555857" style="fill:rgb(111,235,116);stroke-width=0"/>
<polygon points="205.99999999999986,45.0000000000002 248.99999999999986,164.0000000000001 250.9999999999998,125.00000000000017" style="fill:rgb(111,235,116);stroke-width=0"/>
<polygon points="531.0,405.0 544.0,578.0 750.0,487.0" style="fill:rgb(99,9,107);stroke-width=0"/>
<polygon points="418.38477631085027,466.8772003600252 305.24769132100266,598.3990616607231 515.2584053334073,679.716341497176" style="fill:rgb(99,9,107);stroke-width=0"/>
<polygon points="233.1227996399748,318.38477631085027 101.60093833927692,205.24769132100266 20.283658502823982,415.25840533340727" style="fill:rgb(99,9,107);stroke-width=0"/>
<polygon points="504.99999999999994,168.99999999999997 678.0,155.99999999999994 587.0,-50.0" style="fill:rgb(99,9,107);stroke-width=0"/>
<polygon points="295.00000000000006,431.0 122.0,444.0000000000001 213.00000000000006,650.0" style="fill:rgb(99,9,107);stroke-width=0"/>
<polygon points="566.8772003600252,281.61522368914973 698.3990616607232,394.7523086789973 779.716341497176,184.74159466659265" style="fill:rgb(99,9,107);stroke-width=0"/>
<polygon points="381.6152236891497,133.1227996399748 494.7523086789972,1.6009383392768086 284.74159466659256,-79.71634149717602" style="fill:rgb(99,9,107);stroke-width=0"/>
<polygon points="268.9999999999999,195.0000000000001 255.99999999999974,22.0 49.99999999999983,113.00000000000023" style="fill:rgb(99,9,107);stroke-width=0"/>
<polygon points="514.0,353.0 424.0,525.0 618.0,335.0" style="fill:rgb(179,43,44);stroke-width=0"/>
<polygon points="443.1335136523794,418.0868324581534 257.87153698150394,476.06958851545033 529.4005409571382,478.8980156401965" style="fill:rgb(179,43,44);stroke-width=0"/>
<polygon points="281.9131675418466,343.1335136523794 223.93041148454967,157.87153698150394 221.1019843598035,429.4005409571382" style="fill:rgb(179,43,44);stroke-width=0"/>
<polygon points="453.0,186.0 625.0,276.0 434.99999999999994,82.0" style="fill:rgb(179,43,44);stroke-width=0"/>
<polygon points="347.0,414.0 175.0,324.0 365.0000000000001,518.0" style="fill:rgb(179,43,44);stroke-width=0"/>
<polygon points="518.0868324581535,256.8664863476206 576.0695885154504,442.12846301849606 578.8980156401965,170.5994590428617" style="fill:rgb(179,43,44);stroke-width=0"/>
<polygon points="356.8664863476206,181.91316754184652 542.1284630184961,123.93041148454958 270.59945904286167,121.10198435980354" style="fill:rgb(179,43,44);stroke-width=0"/>
<polygon points="285.99999999999994,247.0 375.9999999999999,74.99999999999994 181.99999999999994,265.00000000000017" style="fill:rgb(179,43,44);stroke-width=0"/>
<polygon points="440.0,370.0 415.0,599.0 599.0,327.0" style="fill:rgb(164,43,115);stroke-width=0"/>
<polygon points="378.7867965644036,377.78174593052023 199.18167414302053,522.0315292925759 521.6223663640861,459.8061325481598" style="fill:rgb(164,43,115);stroke-width=0"/>
<polygon points="322.21825406947977,278.7867965644036 177.9684707074241,99.18167414302053 240.19386745184022,421.62236636408613" style="fill:rgb(164,43,115);stroke-width=0"/>
<polygon points="470.0,260.0 699.0,285.0 427.00000000000006,101.0" style="fill:rgb(164,43,115);stroke-width=0"/>
<polygon points="330.0,340.0 101.0,315.00000000000006 372.99999999999994,499.0" style="fill:rgb(164,43,115);stroke-width=0"/>
<polygon points="477.78174593052023,321.2132034355964 622.031529292576,500.8183258569794 559.8061325481598,178.37763363591384" style="fill:rgb(164,43,115);stroke-width=0"/>
<polygon points="421.2132034355964,222.21825406947977 600.8183258569794,77.96847070742396 278.3776336359138,140.19386745184025" style="fill:rgb(164,43,115);stroke-width=0"/>
<polygon points="360.0,230.0 384.9999999999998,1.0 201.0,273.00000000000006" style="fill:rgb(164,43,115);stroke-width=0"/>
<polygon points="597.0,320.0 424.0,500.0 419.0,439.0" style="fill:rgb(0,171,106);stroke-width=0"/>
<polygon points="525.1579002700189,453.4421715174808 275.54920651116765,458.3919189857867 315.1471862576143,411.7228714274745" style="fill:rgb(0,171,106);stroke-width=0"/>
<polygon points="246.5578284825192,425.1579002700189 241.60808101421333,175.54920651116765 288.2771285725255,215.1471862576143" style="fill:rgb(0,171,106);stroke-width=0"/>
<polygon points="420.0,103.0 600.0,275.99999999999994 539.0,281.0" style="fill:rgb(0,171,106);stroke-width=0"/>
<polygon points="380.0,497.0 200.0,324.00000000000006 261.0,319.0" style="fill:rgb(0,171,106);stroke-width=0"/>
<polygon points="553.4421715174808,174.84209972998104 558.3919189857868,424.4507934888323 511.7228714274745,384.8528137423857" style="fill:rgb(0,171,106);stroke-width=0"/>
<polygon points="274.842099729981,146.55782848251923 524.4507934888322,141.60808101421318 484.8528137423857,188.2771285725255" style="fill:rgb(0,171,106);stroke-width=0"/>
<polygon points="202.99999999999994,280.0000000000001 375.9999999999998,99.99999999999997 381.0,161.0" style="fill:rgb(0,171,106);stroke-width=0"/>
<polygon points="450.0,454.0 457.0,474.0 527.0,425.0" style="fill:rgb(153,100,216);stroke-width=0"/>
<polygon points="326.4608947565991,444.2497833620557 317.26850660117395,463.3416664540925 401.4142135623731,478.19090885900994" style="fill:rgb(153,100,216);stroke-width=0"/>
<polygon points="255.75021663794428,226.4608947565991 236.6583335459075,217.26850660117395 221.80909114099006,301.4142135623731" style="fill:rgb(153,100,216);stroke-width=0"/>
<polygon points="554.0,249.99999999999994 574.0,242.99999999999997 525.0,173.0" style="fill:rgb(153,100,216);stroke-width=0"/>
<polygon points="246.0,350.00000000000006 226.0,357.00000000000006 275.0,427.0" style="fill:rgb(153,100,216);stroke-width=0"/>
<polygon points="544.2497833620557,373.53910524340085 563.3416664540925,382.731493398826 578.19090885901,298.5857864376269" style="fill:rgb(153,100,216);stroke-width=0"/>
<polygon points="473.53910524340085,155.75021663794428 482.73149339882593,136.65833354590742 398.58578643762684,121.80909114098995" style="fill:rgb(153,100,216);stroke-width=0"/>
<polygon points="349.9999999999999,146.00000000000006 342.9999999999998,126.00000000000003 272.9999999999999,175.0" style="fill:rgb(153,100,216);stroke-width=0"/>
<polygon points="705.0,594.0 727.0,365.0 554.0,448.0" style="fill:rgb(22,62,102);stroke-width=0"/>
<polygon points="407.7781745930521,723.556961930742 585.2619766708755,577.1858582251266 404.2426406871193,513.5462479183374" style="fill:rgb(22,62,102);stroke-width=0"/>
<polygon points="-23.556961930741977,307.7781745930521 122.8141417748734,485.26197667087547 186.45375208166263,304.2426406871193" style="fill:rgb(22,62,102);stroke-width=0"/>
<polygon points="694.0,-5.000000000000057 464.99999999999994,-27.0 548.0,145.99999999999994" style="fill:rgb(22,62,102);stroke-width=0"/>
<polygon points="106.00000000000006,605.0000000000001 335.0000000000001,627.0 252.00000000000003,454.0000000000001" style="fill:rgb(22,62,102);stroke-width=0"/>
<polygon points="823.5569619307421,292.2218254069478 677.1858582251266,114.73802332912442 613.5462479183375,295.75735931288057" style="fill:rgb(22,62,102);stroke-width=0"/>
<polygon points="392.22182540694774,-123.55696193074209 214.73802332912436,22.814141774873463 395.7573593128805,86.45375208166251" style="fill:rgb(22,62,102);stroke-width=0"/>
<polygon points="94.99999999999966,6.0000000000001705 72.99999999999989,235.00000000000028 245.99999999999972,152.00000000000009" style="fill:rgb(22,62,102);stroke-width=0"/>
<polygon points="787.0,362.0 494.0,331.0 476.0,475.0" style="fill:rgb(231,51,159);stroke-width=0"/>
<polygon points="629.8097038856279,617.4909447527598 444.5477272147525,388.3883476483185 329.9964286625318,477.48380207782344" style="fill:rgb(231,51,159);stroke-width=0"/>
<polygon points="82.50905524724021,529.8097038856279 311.6116523516815,344.5477272147525 222.51619792217656,229.9964286625318" style="fill:rgb(231,51,159);stroke-width=0"/>
<polygon points="462.0,-86.99999999999989 431.0,205.99999999999994 575.0,223.99999999999997" style="fill:rgb(231,51,159);stroke-width=0"/>
<polygon points="338.00000000000006,686.9999999999999 369.0,394.00000000000006 225.0,376.00000000000006" style="fill:rgb(231,51,159);stroke-width=0"/>
<polygon points="717.4909447527597,70.19029611437202 488.3883476483185,255.45227278524746 577.4838020778235,370.00357133746814" style="fill:rgb(231,51,159);stroke-width=0"/>
<polygon points="170.19029611437196,-17.490944752759617 355.45227278524743,211.61165235168153 470.0035713374681,122.5161979221765" style="fill:rgb(231,51,159);stroke-width=0"/>
<polygon points="13.000000000000114,238.0000000000003 305.9999999999999,269.00000000000006 323.99999999999983,125.00000000000006" style="fill:rgb(231,51,159);stroke-width=0"/>
<polygon points="743.0,548.0 485.0,534.0 581.0,507.0" style="fill:rgb(193,180,167);stroke-width=0"/>
<polygon points="467.17514421272205,717.9001076812496 294.6410896032045,525.5670631985087 381.6152236891498,574.3574311003804" style="fill:rgb(193,180,167);stroke-width=0"/>
<polygon points="-17.90010768124955,367.1751442127221 174.43293680149134,194.64108960320448 125.64256889961962,281.6152236891498" style="fill:rgb(193,180,167);stroke-width=0"/>
<polygon points="647.9999999999999,-43.00000000000006 634.0,214.99999999999994 607.0,119.0" style="fill:rgb(193,180,167);stroke-width=0"/>
<polygon points="152.00000000000014,643.0000000000001 166.0,385.0000000000001 193.00000000000003,481.0" style="fill:rgb(193,180,167);stroke-width=0"/>
<polygon points="817.9001076812496,232.82485578727773 625.5670631985088,405.35891039679547 674.3574311003804,318.38477631085016" style="fill:rgb(193,180,167);stroke-width=0"/>
<polygon points="332.82485578727767,-117.90010768124955 505.3589103967954,74.4329368014912 418.3847763108501,25.64256889961962" style="fill:rgb(193,180,167);stroke-width=0"/>
<polygon points="56.999999999999716,52.00000000000034 314.9999999999997,66.00000000000006 218.9999999999999,93.00000000000017" style="fill:rgb(193,180,167);stroke-width=0"/>
<polygon points="749.0,349.0 739.0,345.0 561.0,465.0" style="fill:rgb(85,28,192);stroke-width=0"/>
<polygon points="612.1320343559643,581.4284989122459 607.889393668845,571.5290039756342 397.17157287525384,530.5168106668145" style="fill:rgb(85,28,192);stroke-width=0"/>
<polygon points="118.57150108775409,512.1320343559643 128.47099602436583,507.88939366884495 169.48318933318546,297.17157287525384" style="fill:rgb(85,28,192);stroke-width=0"/>
<polygon points="448.99999999999994,-49.0 444.9999999999999,-38.999999999999886 565.0,138.99999999999994" style="fill:rgb(85,28,192);stroke-width=0"/>
<polygon points="351.0000000000001,649.0 355.00000000000017,638.9999999999999 235.00000000000003,461.0000000000001" style="fill:rgb(85,28,192);stroke-width=0"/>
<polygon points="681.4284989122458,87.86796564403559 671.529003975634,92.11060633115494 630.5168106668145,302.82842712474604" style="fill:rgb(85,28,192);stroke-width=0"/>
<polygon points="187.86796564403554,18.571501087754257 192.11060633115488,28.470996024366002 402.828427124746,69.48318933318546" style="fill:rgb(85,28,192);stroke-width=0"/>
<polygon points="51.0,251.00000000000034 61.000000000000114,255.00000000000037 238.9999999999998,135.00000000000014" style="fill:rgb(85,28,192);stroke-width=0"/>
<polygon points="680.0,393.0 466.0,576.0 410.0,402.0" style="fill:rgb(163,102,24);stroke-width=0"/>
<polygon points="532.2289680818844,563.7508293825822 251.50757595082504,541.8305191657993 334.9461761308376,379.19595949289334" style="fill:rgb(163,102,24);stroke-width=0"/>
<polygon points="136.2491706174178,432.22896808188443 158.16948083420073,151.50757595082507 320.80404050710666,234.9461761308376" style="fill:rgb(163,102,24);stroke-width=0"/>
<polygon points="492.99999999999994,20.0 676.0,233.99999999999994 502.0,290.0" style="fill:rgb(163,102,24);stroke-width=0"/>
<polygon points="307.0000000000001,580.0 124.0,366.0000000000001 298.0,310.0" style="fill:rgb(163,102,24);stroke-width=0"/>
<polygon points="663.7508293825822,167.7710319181155 641.8305191657994,448.4924240491749 479.19595949289334,365.0538238691624" style="fill:rgb(163,102,24);stroke-width=0"/>
<polygon points="267.77103191811545,36.2491706174178 548.4924240491748,58.169480834200584 465.0538238691624,220.80404050710666" style="fill:rgb(163,102,24);stroke-width=0"/>
<polygon points="119.99999999999989,207.00000000000017 333.9999999999997,24.0 390.0,198.0" style="fill:rgb(163,102,24);stroke-width=0"/>
<polygon points="697.0,310.0 444.0,386.0 773.0,542.0" style="fill:rgb(145,249,94);stroke-width=0"/>
<polygon points="602.9396462005392,517.0817818242701 370.301515190165,391.9238815542512 492.6309883354378,734.8706704297267" style="fill:rgb(145,249,94);stroke-width=0"/>
<polygon points="182.91821817572986,502.9396462005392 308.0761184457488,270.301515190165 -34.870670429726715,392.6309883354378" style="fill:rgb(145,249,94);stroke-width=0"/>
<polygon points="410.0,2.9999999999998863 486.0,256.0 641.9999999999999,-73.00000000000006" style="fill:rgb(145,249,94);stroke-width=0"/>
<polygon points="390.00000000000006,597.0000000000001 314.0,344.0 158.00000000000017,673.0000000000001" style="fill:rgb(145,249,94);stroke-width=0"/>
<polygon points="617.0817818242701,97.0603537994607 491.9238815542512,329.698484809835 834.8706704297267,207.369011664562" style="fill:rgb(145,249,94);stroke-width=0"/>
<polygon points="197.06035379946067,82.91821817572989 429.698484809835,208.07611844574882 307.3690116645619,-134.87067042972672" style="fill:rgb(145,249,94);stroke-width=0"/>
<polygon points="102.99999999999989,290.0000000000002 356.0,214.0 26.999999999999716,58.00000000000031" style="fill:rgb(145,249,94);stroke-width=0"/>
<polygon points="498.0,448.0 542.0,553.0 629.0,476.0" style="fill:rgb(228,231,34);stroke-width=0"/>
<polygon points="364.6446609406726,473.9482681718907 321.5111472882932,579.3071785686863 437.47665940288704,586.3782463805517" style="fill:rgb(228,231,34);stroke-width=0"/>
<polygon points="226.05173182810933,264.6446609406726 120.69282143131375,221.51114728829322 113.62175361944833,337.47665940288704" style="fill:rgb(228,231,34);stroke-width=0"/>
<polygon points="548.0,202.0 653.0,158.0 576.0,71.00000000000003" style="fill:rgb(228,231,34);stroke-width=0"/>
<polygon points="252.0,398.0 147.00000000000003,442.0 224.00000000000003,529.0" style="fill:rgb(228,231,34);stroke-width=0"/>
<polygon points="573.9482681718907,335.3553390593273 679.3071785686863,378.4888527117067 686.3782463805517,262.5233405971129" style="fill:rgb(228,231,34);stroke-width=0"/>
<polygon points="435.3553390593273,126.05173182810927 478.48885271170667,20.692821431313746 362.52334059711285,13.621753619448327" style="fill:rgb(228,231,34);stroke-width=0"/>
<polygon points="301.9999999999999,152.00000000000003 257.9999999999999,47.000000000000114 170.99999999999991,124.00000000000023" style="fill:rgb(228,231,34);stroke-width=0"/>
<polygon points="654.0,409.0 699.0,562.0 792.0,391.0" style="fill:rgb(214,170,90);stroke-width=0"/>
<polygon points="502.5304832720494,556.6797615707167 426.16295090390224,696.6869042456532 612.8391411371508,641.5325753131024" style="fill:rgb(214,170,90);stroke-width=0"/>
<polygon points="143.32023842928334,402.5304832720494 3.3130957543468185,326.16295090390224 58.46742468689763,512.8391411371508" style="fill:rgb(214,170,90);stroke-width=0"/>
<polygon points="508.9999999999999,46.00000000000006 662.0,0.9999999999999432 490.9999999999999,-91.99999999999994" style="fill:rgb(214,170,90);stroke-width=0"/>
<polygon points="291.0000000000001,554.0 138.00000000000006,599.0000000000001 309.00000000000017,692.0" style="fill:rgb(214,170,90);stroke-width=0"/>
<polygon points="656.6797615707167,197.4695167279505 796.6869042456532,273.83704909609753 741.5325753131024,87.16085886284901" style="fill:rgb(214,170,90);stroke-width=0"/>
<polygon points="297.46951672795046,43.320238429283336 373.8370490960975,-96.68690424565318 187.16085886284895,-41.53257531310231" style="fill:rgb(214,170,90);stroke-width=0"/>
<polygon points="145.99999999999994,191.00000000000023 100.99999999999977,38.00000000000023 7.999999999999886,209.00000000000037" style="fill:rgb(214,170,90);stroke-width=0"/>
<polygon points="570.0,444.0 783.0,305.0 616.0,520.0" style="fill:rgb(101,115,30);stroke-width=0"/>
<polygon points="418.38477631085027,522.0315292925759 667.2863632885151,574.3574311003804 397.17157287525384,608.2985565973347" style="fill:rgb(101,115,30);stroke-width=0"/>
<polygon points="177.9684707074241,318.38477631085027 125.64256889961962,567.2863632885151 91.70144340266529,297.17157287525384" style="fill:rgb(101,115,30);stroke-width=0"/>
<polygon points="544.0,129.99999999999997 404.9999999999999,-83.0 620.0,83.99999999999997" style="fill:rgb(101,115,30);stroke-width=0"/>
<polygon points="256.0,470.00000000000006 395.00000000000017,683.0 180.00000000000003,516.0" style="fill:rgb(101,115,30);stroke-width=0"/>
<polygon points="622.031529292576,281.61522368914973 674.3574311003803,32.71363671148481 708.2985565973347,302.8284271247461" style="fill:rgb(101,115,30);stroke-width=0"/>
<polygon points="381.6152236891497,77.96847070742399 132.71363671148475,25.64256889961979 402.82842712474604,-8.29855659733471" style="fill:rgb(101,115,30);stroke-width=0"/>
<polygon points="229.99999999999986,156.00000000000003 17.0,295.00000000000045 183.99999999999986,80.00000000000017" style="fill:rgb(101,115,30);stroke-width=0"/>
<polygon points="550.0,304.0 704.0,400.0 734.0,308.0" style="fill:rgb(226,233,85);stroke-width=0"/>
<polygon points="503.237590053236,408.8944443027283 544.2497833620557,585.6711395993652 630.5168106668145,541.8305191657992" style="fill:rgb(226,233,85);stroke-width=0"/>
<polygon points="291.1055556972717,403.237590053236 114.32886040063477,444.2497833620557 158.16948083420084,530.5168106668145" style="fill:rgb(226,233,85);stroke-width=0"/>
<polygon points="403.99999999999994,150.0 500.0,-4.000000000000057 407.9999999999999,-34.0" style="fill:rgb(226,233,85);stroke-width=0"/>
<polygon points="396.00000000000006,450.0 300.00000000000006,604.0 392.00000000000017,634.0" style="fill:rgb(226,233,85);stroke-width=0"/>
<polygon points="508.8944443027283,196.76240994676402 685.6711395993651,155.75021663794422 641.8305191657992,69.48318933318532" style="fill:rgb(226,233,85);stroke-width=0"/>
<polygon points="296.762409946764,191.1055556972717 255.75021663794416,14.32886040063488 169.48318933318527,58.16948083420087" style="fill:rgb(226,233,85);stroke-width=0"/>
<polygon points="250.0,296.0000000000001 95.99999999999994,200.00000000000023 65.99999999999989,292.00000000000034" style="fill:rgb(226,233,85);stroke-width=0"/>
<polygon points="627.0,323.0 542.0,472.0 692.0,358.0" style="fill:rgb(7,202,22);stroke-width=0"/>
<polygon points="544.2497833620557,476.77669529663683 378.7867965644036,522.0315292925759 565.4629867976521,547.4873734152916" style="fill:rgb(7,202,22);stroke-width=0"/>
<polygon points="223.22330470336317,444.2497833620557 177.9684707074241,278.7867965644036 152.5126265847084,465.4629867976521" style="fill:rgb(7,202,22);stroke-width=0"/>
<polygon points="422.99999999999994,73.0 572.0,158.0 457.99999999999994,8.000000000000057" style="fill:rgb(7,202,22);stroke-width=0"/>
<polygon points="377.0000000000001,527.0 228.00000000000003,442.0 342.0000000000001,592.0" style="fill:rgb(7,202,22);stroke-width=0"/>
<polygon points="576.7766952966368,155.75021663794416 622.0315292925759,321.21320343559637 647.4873734152916,134.53701320234774" style="fill:rgb(7,202,22);stroke-width=0"/>
<polygon points="255.75021663794413,123.2233047033632 421.2132034355963,77.9684707074241 234.53701320234768,52.51262658470844" style="fill:rgb(7,202,22);stroke-width=0"/>
<polygon points="172.99999999999994,277.0000000000002 257.9999999999999,128.00000000000014 107.99999999999989,242.00000000000026" style="fill:rgb(7,202,22);stroke-width=0"/>
<polygon points="722.0,393.0 490.0,408.0 664.0,481.0" style="fill:rgb(56,242,5);stroke-width=0"/>
<polygon points="561.9274528917194,593.4493141924172 387.27207793864216,440.0071426749364 458.68986283848346,614.6625176280136" style="fill:rgb(56,242,5);stroke-width=0"/>
<polygon points="106.5506858075828,461.92745289171944 259.9928573250636,287.27207793864216 85.33748237198643,358.68986283848346" style="fill:rgb(56,242,5);stroke-width=0"/>
<polygon points="492.99999999999994,-22.0 508.0,210.0 580.9999999999999,36.0" style="fill:rgb(56,242,5);stroke-width=0"/>
<polygon points="307.0000000000001,622.0 292.0,390.0 219.00000000000014,564.0" style="fill:rgb(56,242,5);stroke-width=0"/>
<polygon points="693.4493141924172,138.0725471082805 540.0071426749364,312.72792206135784 714.6625176280136,241.31013716151642" style="fill:rgb(56,242,5);stroke-width=0"/>
<polygon points="238.07254710828045,6.550685807582852 412.72792206135784,159.9928573250636 341.31013716151637,-14.662517628013575" style="fill:rgb(56,242,5);stroke-width=0"/>
<polygon points="77.99999999999989,207.00000000000026 310.0,192.00000000000003 135.9999999999999,119.00000000000026" style="fill:rgb(56,242,5);stroke-width=0"/>
<polygon points="629.0,346.0 684.0,528.0 681.0,300.0" style="fill:rgb(161,97,57);stroke-width=0"/>
<polygon points="529.4005409571382,494.45436482630055 439.59797974644664,662.0386719675123 598.6970055134199,498.69700551341987" style="fill:rgb(161,97,57);stroke-width=0"/>
<polygon points="205.54563517369945,429.4005409571382 37.9613280324877,339.59797974644664 201.30299448658013,498.69700551341987" style="fill:rgb(161,97,57);stroke-width=0"/>
<polygon points="445.99999999999994,71.0 628.0,16.0 400.0,19.0" style="fill:rgb(161,97,57);stroke-width=0"/>
<polygon points="354.0000000000001,529.0 172.00000000000003,584.0 400.00000000000006,581.0" style="fill:rgb(161,97,57);stroke-width=0"/>
<polygon points="594.4543648263004,170.5994590428617 762.0386719675123,260.40202025355325 598.6970055134198,101.30299448658008" style="fill:rgb(161,97,57);stroke-width=0"/>
<polygon points="270.59945904286167,105.5456351736996 360.4020202535532,-62.0386719675123 201.30299448658005,101.30299448658027" style="fill:rgb(161,97,57);stroke-width=0"/>
<polygon points="171.0,254.00000000000026 115.99999999999983,72.0000000000002 119.0,300.0000000000002" style="fill:rgb(161,97,57);stroke-width=0"/>
<polygon points="435.0,501.0 506.0,442.0 638.0,385.0" style="fill:rgb(231,246,220);stroke-width=0"/>
<polygon points="282.62027432303313,466.8772003600252 374.5441558772843,475.3624817342638 508.1873375215418,528.3954903232549" style="fill:rgb(231,246,220);stroke-width=0"/>
<polygon points="233.1227996399748,182.62027432303313 224.63751826573622,274.5441558772843 171.60450967674512,408.1873375215418" style="fill:rgb(231,246,220);stroke-width=0"/>
<polygon points="601.0,265.0 542.0,194.0 485.0,61.99999999999994" style="fill:rgb(231,246,220);stroke-width=0"/>
<polygon points="199.0,335.0 258.0,406.0 315.0,538.0" style="fill:rgb(231,246,220);stroke-width=0"/>
<polygon points="566.8772003600252,417.37972567696687 575.3624817342638,325.4558441227157 628.3954903232549,191.81266247845818" style="fill:rgb(231,246,220);stroke-width=0"/>
<polygon points="517.3797256769668,133.12279963997477 425.45584412271563,124.63751826573616 291.81266247845815,71.60450967674515" style="fill:rgb(231,246,220);stroke-width=0"/>
<polygon points="364.9999999999999,99.00000000000006 293.9999999999999,158.00000000000006 161.99999999999994,215.0000000000001" style="fill:rgb(231,246,220);stroke-width=0"/>
</svg>
